<?xml version="1.0" encoding="iso-8859-1"?>
<!-- Generator: Adobe Illustrator 19.0.0, SVG Export Plug-In . SVG Version: 6.00 Build 0)  -->
<svg version="1.1" id="Layer_1" xmlns="http://www.w3.org/2000/svg" xmlns:xlink="http://www.w3.org/1999/xlink" x="0px" y="0px"
	 viewBox="0 0 512 512" style="enable-background:new 0 0 512 512;" xml:space="preserve">
<g>
	<g>
		<g>
			<path d="M344.277,343.424c-0.819,0.708-20.011,17.707-20.011,49.109V435.2c0,4.71,3.814,8.533,8.533,8.533
				c4.719,0,8.533-3.823,8.533-8.533v-42.667c0-23.33,13.594-35.738,14.566-36.634l59.733-59.733
				c3.388-3.388,7.612-5.35,11.895-5.521c4.352-0.188,8.09,1.382,11.204,4.488c3.106,3.115,4.668,6.989,4.489,11.204
				c-0.171,4.284-2.133,8.508-5.521,11.895L395.034,360.9c-3.337,3.337-3.337,8.73,0,12.066c3.336,3.337,8.73,3.337,12.066,0
				l42.667-42.658c6.426-6.426,10.155-14.694,10.513-23.279c0.367-8.969-2.995-17.485-9.481-23.962
				c-6.485-6.477-14.891-9.813-23.97-9.481c-8.576,0.358-16.845,4.087-23.262,10.513L344.277,343.424z"/>
			<path d="M93.867,435.2c2.185,0,4.369-0.836,6.033-2.5c3.337-3.337,3.337-8.73,0-12.066l-68.753-68.71
				c-0.572-0.503-14.08-12.553-14.08-36.19v-128c0-9.412,7.654-17.067,17.067-17.067c9.412,0,17.067,7.654,17.067,17.067v67.558
				c0,4.71,3.814,8.533,8.533,8.533s8.533-3.823,8.533-8.533v-67.558c0-18.825-15.309-34.133-34.133-34.133
				C15.309,153.6,0,168.909,0,187.733v128c0,31.863,19.277,48.495,19.567,48.7L87.834,432.7
				C89.498,434.364,91.682,435.2,93.867,435.2z"/>
			<path d="M51.721,307.029c0.358,8.585,4.087,16.853,10.513,23.27l42.667,42.667c3.337,3.337,8.73,3.337,12.066,0
				c3.336-3.337,3.336-8.73,0-12.066L74.3,318.225c-3.388-3.379-5.35-7.603-5.521-11.887c-0.179-4.215,1.382-8.09,4.489-11.204
				c3.115-3.106,6.878-4.676,11.204-4.488c4.284,0.171,8.508,2.133,11.895,5.521l60.134,60.109
				c0.572,0.521,14.165,12.928,14.165,36.258V435.2c0,4.71,3.814,8.533,8.533,8.533s8.533-3.823,8.533-8.533v-42.667
				c0-31.403-19.191-48.401-19.567-48.7L108.433,284.1c-6.417-6.426-14.686-10.155-23.262-10.513
				c-9.114-0.316-17.493,3.004-23.97,9.481C54.716,289.545,51.354,298.061,51.721,307.029z"/>
			<path d="M256,110.933c9.412,0,17.067,7.654,17.067,17.067c0,4.71,3.814,8.533,8.533,8.533c4.719,0,8.533-3.823,8.533-8.533
				c0-15.855-10.914-29.107-25.6-32.922v-1.212c0-4.71-3.814-8.533-8.533-8.533s-8.533,3.823-8.533,8.533v1.212
				c-14.686,3.814-25.6,17.067-25.6,32.922c0,18.825,15.309,34.133,34.133,34.133c9.412,0,17.067,7.654,17.067,17.067
				s-7.654,17.067-17.067,17.067c-9.412,0-17.067-7.654-17.067-17.067c0-4.71-3.814-8.533-8.533-8.533s-8.533,3.823-8.533,8.533
				c0,15.855,10.914,29.107,25.6,32.922v1.212c0,4.71,3.814,8.533,8.533,8.533s8.533-3.823,8.533-8.533v-1.212
				c14.686-3.814,25.6-17.067,25.6-32.922c0-18.825-15.309-34.133-34.133-34.133c-9.412,0-17.067-7.654-17.067-17.067
				C238.933,118.588,246.588,110.933,256,110.933z"/>
			<path d="M196.267,460.8H59.733c-4.719,0-8.533,3.823-8.533,8.533v34.133c0,4.71,3.814,8.533,8.533,8.533s8.533-3.823,8.533-8.533
				v-25.6h119.467v25.6c0,4.71,3.814,8.533,8.533,8.533s8.533-3.823,8.533-8.533v-34.133C204.8,464.623,200.986,460.8,196.267,460.8
				z"/>
			<path d="M452.267,460.8H315.733c-4.719,0-8.533,3.823-8.533,8.533v34.133c0,4.71,3.814,8.533,8.533,8.533
				s8.533-3.823,8.533-8.533v-25.6h119.467v25.6c0,4.71,3.814,8.533,8.533,8.533c4.719,0,8.533-3.823,8.533-8.533v-34.133
				C460.8,464.623,456.986,460.8,452.267,460.8z"/>
			<path d="M256,34.133c-65.877,0-119.467,53.589-119.467,119.467S190.123,273.067,256,273.067S375.467,219.477,375.467,153.6
				S321.877,34.133,256,34.133z M256,256c-56.465,0-102.4-45.935-102.4-102.4c0-56.465,45.935-102.4,102.4-102.4
				s102.4,45.935,102.4,102.4C358.4,210.065,312.465,256,256,256z"/>
			<path d="M477.867,153.6c-18.825,0-34.133,15.309-34.133,34.133v67.558c0,4.71,3.814,8.533,8.533,8.533
				c4.719,0,8.533-3.823,8.533-8.533v-67.558c0-9.412,7.654-17.067,17.067-17.067s17.067,7.654,17.067,17.067v128
				c0,23.637-13.508,35.686-14.566,36.634L412.1,420.634c-3.337,3.337-3.337,8.73,0,12.066c1.664,1.664,3.849,2.5,6.033,2.5
				c2.185,0,4.369-0.836,6.033-2.5l67.738-67.78c0.819-0.691,20.096-17.323,20.096-49.186v-128
				C512,168.909,496.691,153.6,477.867,153.6z"/>
			<path d="M409.6,153.6C409.6,68.907,340.693,0,256,0S102.4,68.907,102.4,153.6S171.307,307.2,256,307.2S409.6,238.293,409.6,153.6
				z M256,290.133c-75.281,0-136.533-61.252-136.533-136.533S180.719,17.067,256,17.067S392.533,78.319,392.533,153.6
				S331.281,290.133,256,290.133z"/>
		</g>
	</g>
</g>
<g>
</g>
<g>
</g>
<g>
</g>
<g>
</g>
<g>
</g>
<g>
</g>
<g>
</g>
<g>
</g>
<g>
</g>
<g>
</g>
<g>
</g>
<g>
</g>
<g>
</g>
<g>
</g>
<g>
</g>
</svg>
