<?xml version="1.0" encoding="UTF-8" standalone="no"?>
<svg
   xmlns:dc="http://purl.org/dc/elements/1.1/"
   xmlns:cc="http://creativecommons.org/ns#"
   xmlns:rdf="http://www.w3.org/1999/02/22-rdf-syntax-ns#"
   xmlns:svg="http://www.w3.org/2000/svg"
   xmlns="http://www.w3.org/2000/svg"
   xmlns:sodipodi="http://sodipodi.sourceforge.net/DTD/sodipodi-0.dtd"
   xmlns:inkscape="http://www.inkscape.org/namespaces/inkscape"
   height="512pt"
   viewBox="0 -16 512 512"
   width="512pt"
   version="1.1"
   id="svg865"
   sodipodi:docname="rename.svg"
   inkscape:version="1.0.1 (c497b03c, 2020-09-10)">
  <metadata
     id="metadata871">
    <rdf:RDF>
      <cc:Work
         rdf:about="">
        <dc:format>image/svg+xml</dc:format>
        <dc:type
           rdf:resource="http://purl.org/dc/dcmitype/StillImage" />
      </cc:Work>
    </rdf:RDF>
  </metadata>
  <defs
     id="defs869" />
  <sodipodi:namedview
     pagecolor="#ffffff"
     bordercolor="#666666"
     borderopacity="1"
     objecttolerance="10"
     gridtolerance="10"
     guidetolerance="10"
     inkscape:pageopacity="0"
     inkscape:pageshadow="2"
     inkscape:window-width="1280"
     inkscape:window-height="747"
     id="namedview867"
     showgrid="false"
     inkscape:zoom="0.39886801"
     inkscape:cx="270.51075"
     inkscape:cy="268.30343"
     inkscape:window-x="0"
     inkscape:window-y="25"
     inkscape:window-maximized="0"
     inkscape:current-layer="svg865" />
  <path
     d="m504.472656 33.082031h-408.335937c-4.15625 0-7.523438 3.367188-7.523438 7.523438v383.183593c0 4.15625 3.367188 7.523438 7.523438 7.523438h408.335937c4.15625 0 7.527344-3.367188 7.527344-7.523438v-383.183593c0-4.15625-3.371094-7.523438-7.527344-7.523438zm0 0"
     fill="#f9e075"
     id="path833"
     style="fill:#ecedef;fill-opacity:1" />
  <path
     d="m96.136719 30.875h-88.609375c-4.160156 0-7.527344 3.367188-7.527344 7.523438v377.273437c0 21.535156 22.765625 38.402344 51.832031 38.402344 29.0625 0 51.832031-16.867188 51.832031-38.402344v-377.273437c0-4.15625-3.371093-7.523438-7.527343-7.523438zm0 0"
     fill="#f9cd45"
     id="path835"
     style="fill:#d8d7d9;fill-opacity:1" />
  <path
     d="m51.832031 0c-29.066406 0-51.832031 16.867188-51.832031 38.398438 0 21.535156 22.765625 38.402343 51.832031 38.402343 29.0625 0 51.832031-16.867187 51.832031-38.402343 0-21.53125-22.769531-38.398438-51.832031-38.398438zm0 0"
     fill="#f8b53c"
     id="path837" />
  <g
     fill="#f9cd45"
     id="g851"
     style="fill:#d8d7d9;fill-opacity:1">
    <path
       d="m230.554688 110.824219h-82.40625c-4.15625 0-7.527344-3.371094-7.527344-7.527344s3.371094-7.523437 7.527344-7.523437h82.40625c4.160156 0 7.527343 3.367187 7.527343 7.523437s-3.367187 7.527344-7.527343 7.527344zm0 0"
       id="path839"
       style="fill:#d8d7d9;fill-opacity:1" />
    <path
       d="m430.191406 162.84375h-282.042968c-4.15625 0-7.527344-3.367188-7.527344-7.523438s3.371094-7.527343 7.527344-7.527343h282.042968c4.15625 0 7.523438 3.371093 7.523438 7.527343s-3.367188 7.523438-7.523438 7.523438zm0 0"
       id="path841"
       style="fill:#d8d7d9;fill-opacity:1" />
    <path
       d="m430.191406 214.863281h-282.042968c-4.15625 0-7.527344-3.367187-7.527344-7.523437s3.371094-7.527344 7.527344-7.527344h282.042968c4.15625 0 7.523438 3.371094 7.523438 7.527344s-3.367188 7.523437-7.523438 7.523437zm0 0"
       id="path843"
       style="fill:#d8d7d9;fill-opacity:1" />
    <path
       d="m430.191406 266.886719h-282.042968c-4.15625 0-7.527344-3.371094-7.527344-7.527344s3.371094-7.523437 7.527344-7.523437h282.042968c4.15625 0 7.523438 3.367187 7.523438 7.523437s-3.367188 7.527344-7.523438 7.527344zm0 0"
       id="path845"
       style="fill:#d8d7d9;fill-opacity:1" />
    <path
       d="m430.191406 318.90625h-282.042968c-4.15625 0-7.527344-3.371094-7.527344-7.527344s3.371094-7.523437 7.527344-7.523437h282.042968c4.15625 0 7.523438 3.367187 7.523438 7.523437s-3.367188 7.527344-7.523438 7.527344zm0 0"
       id="path847"
       style="fill:#d8d7d9;fill-opacity:1" />
    <path
       d="m334.230469 370.925781h-59.625c-4.15625 0-7.527344-3.367187-7.527344-7.523437s3.371094-7.527344 7.527344-7.527344h59.625c4.15625 0 7.523437 3.371094 7.523437 7.527344s-3.367187 7.523437-7.523437 7.523437zm0 0"
       id="path849"
       style="fill:#d8d7d9;fill-opacity:1" />
  </g>
  <path
     d="m479.023438 189.03125c-.605469-3.011719-2.65625-5.472656-5.492188-6.574219-1.253906-.488281-3.429688-1.332031-8.128906.179688 4.746094-15.136719 6.617187-24.878907 5.566406-29.058594-11.925781-47.367187-25.949219-85.601563-26.089844-85.980469-1.089844-2.960937-3.910156-4.925781-7.0625-4.925781s-5.972656 1.964844-7.0625 4.925781c-1.769531 4.800782-43.332031 118.554688-43.332031 200.59375 0 40.175782 4.566406 78.042969 12.855469 106.625 9.242187 31.875 22.222656 48.726563 37.539062 48.726563s28.296875-16.851563 37.539063-48.726563c8.289062-28.582031 12.855469-66.449218 12.855469-106.625 0-22.171875-3.089844-48.804687-9.1875-79.160156zm0 0"
     fill="#ecedef"
     id="path853"
     style="fill:#f9e075;fill-opacity:1" />
  <path
     d="m504.472656 33.082031h-23.078125c4.160157 0 7.527344 3.367188 7.527344 7.523438v383.183593c0 4.15625-3.367187 7.523438-7.527344 7.523438h23.078125c4.160156 0 7.527344-3.367188 7.527344-7.523438v-383.183593c0-4.15625-3.371094-7.523438-7.527344-7.523438zm0 0"
     fill="#f9cd45"
     id="path855"
     style="fill:#d0cfd1;fill-opacity:1" />
  <path
     d="m96.136719 30.875h-23.078125c4.160156 0 7.527344 3.367188 7.527344 7.523438v377.273437c0 18.585937-16.964844 33.683594-40.292969 37.472656 3.703125.601563 7.558593.929688 11.539062.929688 29.066407 0 51.832031-16.867188 51.832031-38.402344v-377.273437c0-4.15625-3.371093-7.523438-7.527343-7.523438zm0 0"
     fill="#f8b53c"
     id="path857"
     style="fill:#d0cfd1;fill-opacity:1" />
  <path
     d="m51.832031 0c-3.980469 0-7.839843.328125-11.539062.929688 23.328125 3.789062 40.292969 18.886718 40.292969 37.46875 0 18.582031-16.964844 33.683593-40.292969 37.472656 3.699219.601562 7.558593.929687 11.539062.929687 29.0625 0 51.832031-16.867187 51.832031-38.402343 0-21.53125-22.769531-38.398438-51.832031-38.398438zm0 0"
     fill="#f8a814"
     id="path859" />
  <path
     d="m479.023438 189.03125c-.605469-3.011719-2.65625-5.472656-5.492188-6.574219-1.253906-.488281-3.429688-1.332031-8.128906.179688 4.746094-15.136719 6.617187-24.878907 5.566406-29.058594-11.925781-47.367187-25.949219-85.601563-26.089844-85.980469-1.089844-2.960937-3.910156-4.925781-7.0625-4.925781s-5.972656 1.964844-7.0625 4.925781c-.320312.878906-1.988281 5.4375-4.492187 12.78125 5.125 15.128906 13.824219 42.207032 21.628906 73.199219 1.050781 4.179687-.820313 13.921875-5.566406 29.058594 4.699219-1.511719 6.875-.667969 8.128906-.179688 2.835937 1.101563 4.886719 3.5625 5.492187 6.574219 6.097657 30.355469 9.1875 56.984375 9.1875 79.160156 0 40.175782-4.566406 78.042969-12.855468 106.625-6.820313 23.515625-15.675782 38.84375-26 45.269532 3.667968 2.285156 7.523437 3.457031 11.539062 3.457031 15.316406 0 28.296875-16.851563 37.539063-48.726563 8.289062-28.582031 12.855469-66.449218 12.855469-106.625 0-22.171875-3.089844-48.804687-9.1875-79.160156zm0 0"
     fill="#d8d7d9"
     id="path861"
     style="fill:#f9cd45;fill-opacity:1" />
  <path
     d="m437.816406 480.085938c-4.15625 0-7.523437-3.371094-7.523437-7.527344v-193.652344c0-4.15625 3.367187-7.527344 7.523437-7.527344 4.160156 0 7.527344 3.371094 7.527344 7.527344v193.652344c0 4.15625-3.367188 7.527344-7.527344 7.527344zm0 0"
     fill="#d0cfd1"
     id="path863"
     style="fill:#f8b53c;fill-opacity:1" />
</svg>
