<?xml version="1.0" encoding="UTF-8" standalone="no"?> <svg width="64" height="64" viewBox="0 0 64 64" fill="none" xmlns="http://www.w3.org/2000/svg">
<path d="M43.7401 17.4097H27.0601C26.6622 17.4097 26.2807 17.5677 25.9994 17.849C25.7181 18.1303 25.5601 18.5118 25.5601 18.9097V23.6597C25.5601 26.2694 26.5968 28.7722 28.4421 30.6176C30.2875 32.463 32.7903 33.4997 35.4001 33.4997C38.0098 33.4997 40.5126 32.463 42.358 30.6176C44.2033 28.7722 45.2401 26.2694 45.2401 23.6597V18.9097C45.2401 18.5118 45.082 18.1303 44.8007 17.849C44.5194 17.5677 44.1379 17.4097 43.7401 17.4097V17.4097Z" fill="#E6E6E6"/>
<path d="M35.4001 30.5C32.7911 30.5026 30.2898 31.5402 28.4451 33.385C26.6003 35.2298 25.5627 37.7311 25.5601 40.34V45.09C25.5601 45.4878 25.7181 45.8694 25.9994 46.1507C26.2807 46.432 26.6622 46.59 27.0601 46.59H43.7401C44.1379 46.59 44.5194 46.432 44.8007 46.1507C45.082 45.8694 45.2401 45.4878 45.2401 45.09V40.34C45.2374 37.7311 44.1999 35.2298 42.3551 33.385C40.5103 31.5402 38.009 30.5026 35.4001 30.5V30.5Z" fill="#ACB3BA"/>
<path d="M35.4 58.0999C31.0574 58.1089 26.7817 57.0301 22.9632 54.9619C19.1447 52.8937 15.9051 49.902 13.54 46.2599C13.4243 46.0952 13.3429 45.909 13.3007 45.7122C13.2585 45.5154 13.2563 45.3122 13.2942 45.1145C13.3322 44.9169 13.4095 44.7289 13.5216 44.5618C13.6337 44.3946 13.7783 44.2518 13.9468 44.1417C14.1153 44.0316 14.3042 43.9566 14.5023 43.921C14.7004 43.8855 14.9036 43.8901 15.0998 43.9347C15.2961 43.9794 15.4814 44.063 15.6446 44.1807C15.8078 44.2984 15.9457 44.4478 16.05 44.6199C19.0815 49.2691 23.6856 52.6714 29.0199 54.2044C34.3543 55.7373 40.0622 55.2984 45.0995 52.9679C50.1367 50.6375 54.1665 46.5712 56.4515 41.5132C58.7366 36.4552 59.1241 30.7435 57.5431 25.4232C55.9622 20.1029 52.5186 15.5296 47.8423 12.5401C43.1659 9.55064 37.5696 8.34479 32.0771 9.1432C26.5846 9.94161 21.5631 12.6909 17.9315 16.8881C14.2998 21.0852 12.3008 26.4497 12.3 31.9999C12.2954 33.3406 12.4092 34.6792 12.64 35.9999L17.25 30.3299C17.5007 30.0209 17.8638 29.8242 18.2595 29.7829C18.6552 29.7416 19.0511 29.8593 19.36 30.1099C19.669 30.3605 19.8658 30.7236 19.907 31.1193C19.9483 31.515 19.8307 31.9109 19.58 32.2199L13.06 40.2199L12.96 40.3299C12.6679 40.5934 12.2885 40.7393 11.895 40.7393C11.5016 40.7393 11.1222 40.5934 10.83 40.3299L3.00004 33.8399C2.69372 33.5747 2.5053 33.1986 2.47623 32.7945C2.44716 32.3904 2.57983 31.9912 2.84504 31.6849C3.11026 31.3786 3.4863 31.1901 3.89044 31.1611C4.29458 31.132 4.69372 31.2647 5.00004 31.5299L9.55005 35.3199C8.87517 30.0574 9.8201 24.7143 12.2589 20.0025C14.6977 15.2907 18.5146 11.434 23.2009 8.94647C27.8871 6.45892 33.2202 5.45863 38.4894 6.07891C43.7586 6.69918 48.7136 8.91055 52.6941 12.4183C56.6746 15.9261 59.4915 20.5637 60.7695 25.713C62.0475 30.8623 61.7258 36.2789 59.8474 41.2408C57.9689 46.2027 54.6229 50.4742 50.2552 53.4862C45.8875 56.4982 40.7056 58.1076 35.4 58.0999V58.0999Z" fill="#F0454E"/>
</svg>
