<?xml version="1.0" encoding="UTF-8" standalone="no"?>
<!-- Creator: CorelDRAW -->

<svg
   xml:space="preserve"
   width="800px"
   height="800px"
   version="1.1"
   style="shape-rendering:geometricPrecision; text-rendering:geometricPrecision; image-rendering:optimizeQuality; fill-rule:evenodd; clip-rule:evenodd"
   viewBox="0 0 800 800"
   id="svg32"
   sodipodi:docname="cancelPlot.svg"
   inkscape:version="1.2.2 (b0a8486, 2022-12-01)"
   xmlns:inkscape="http://www.inkscape.org/namespaces/inkscape"
   xmlns:sodipodi="http://sodipodi.sourceforge.net/DTD/sodipodi-0.dtd"
   xmlns="http://www.w3.org/2000/svg"
   xmlns:svg="http://www.w3.org/2000/svg"><sodipodi:namedview
   id="namedview34"
   pagecolor="#ffffff"
   bordercolor="#666666"
   borderopacity="1.0"
   inkscape:showpageshadow="2"
   inkscape:pageopacity="0.0"
   inkscape:pagecheckerboard="0"
   inkscape:deskcolor="#d1d1d1"
   showgrid="false"
   inkscape:zoom="0.24317105"
   inkscape:cx="246.7399"
   inkscape:cy="458.52497"
   inkscape:window-width="1364"
   inkscape:window-height="847"
   inkscape:window-x="0"
   inkscape:window-y="25"
   inkscape:window-maximized="0"
   inkscape:current-layer="_490915736" />
 <defs
   id="defs11">
  <style
   type="text/css"
   id="style9">
   <![CDATA[
    .fil3 {fill:#A07858}
    .fil0 {fill:#B28562}
    .fil4 {fill:#CFCFCF}
    .fil2 {fill:#DF5A49}
    .fil1 {fill:#E6E6E6}
   ]]>
  </style>
 </defs>
 <g
   id="Layer_x0020_1"
   inkscape:label="Layer 1">
  <metadata
   id="CorelCorpID_0Corel-Layer" />
  <g
   id="_490915736">
   <path
   class="fil0"
   d="M598 656c-10,0 -21,-3 -30,-9 -4,-2 -6,-6 -17,-20 -6,-9 -16,-21 -20,-26 -16,-15 -30,-19 -45,-23 -14,-4 -28,-8 -43,-22 -38,-33 -62,-94 -63,-96 -2,-5 -1,-10 3,-13l52 -53c5,-4 13,-4 17,0l175 175c17,17 22,39 14,58 -7,18 -24,29 -43,29z"
   id="path14" />
   <path
   class="fil1"
   d="M341 505l-145 -145c-26,-27 -41,-68 -41,-113 0,-41 13,-79 34,-99 4,-5 12,-5 17,0l246 246 1 1 -1 -1 -111 111z"
   id="path16" />
   <path
   class="fil2"
   d="M341 505l-145 -145c0,0 -1,-1 -1,-1l0 0 0 0 0 0c0,-1 -1,-1 -1,-1l0 0c-1,-1 -1,-1 -1,-2l0 0c-1,0 -1,-1 -1,-1l-1 0 0 0 0 0c0,-1 0,-1 -1,-1l0 0c-1,-1 -1,-2 -2,-3l0 0c0,-1 -1,-1 -1,-1l0 -1 0 0c-1,0 -1,0 -1,-1l0 0 0 0c-1,0 -1,-1 -1,-1l0 0c-1,-1 -1,-1 -1,-2l0 0 -1 0 0 -1 0 0 -1 0 0 -2 -1 0 0 -1 -1 0 0 0 0 -2 -1 0 0 0 0 -1 -1 -1 0 -1 -1 0 0 -1 0 -1 0 0 -1 -1 0 0 0 0 -1 -2 0 0c-1,0 -1,-1 -1,-1l0 -1 -1 -1 0 0 -1 -2 0 0 -1 -1 0 -1c0,0 0,-1 0,-1l0 0 -1 -2 0 0c-1,0 -1,-1 -1,-2l0 0 -1 -1 0 0 0 -2 -1 0 0 -2 0 0 -1 -2 0 0c-3,-8 -5,-16 -7,-25 18,-8 53,-12 80,16 6,6 10,12 14,18 6,9 11,16 19,19 5,2 9,2 14,2 5,0 11,0 18,2 15,5 22,19 28,32 4,9 9,18 15,23 11,11 29,41 23,77l-29 29z"
   id="path18" />
   <circle
   class="fil3"
   transform="matrix(0.808439 0.808439 -0.808439 0.808439 512.307 523.185)"
   r="21"
   id="circle20" />
   <circle
   class="fil3"
   transform="matrix(0.808439 0.808439 -0.808439 0.808439 575.008 585.886)"
   r="21"
   id="circle22" />
   <circle
   class="fil4"
   transform="matrix(0.707107 0.707107 -0.707107 0.707107 575.008 585.886)"
   r="21"
   id="circle24" />
   <circle
   class="fil4"
   transform="matrix(0.707107 0.707107 -0.707107 0.707107 512.307 523.185)"
   r="21"
   id="circle26" />
  <path
   class="fil2"
   d="M 207.17847,732.28549 604.64468,334.81927 c 0,0 2.74115,-2.74114 2.74115,-2.74114 v 0 0 0 c 0,-2.74115 2.74115,-2.74115 2.74115,-2.74115 v 0 c 2.74114,-2.74115 2.74114,-2.74115 2.74114,-5.48229 v 0 c 2.74115,0 2.74115,-2.74115 2.74115,-2.74115 h 2.74114 v 0 0 c 0,-2.74114 0,-2.74114 2.74115,-2.74114 v 0 c 2.74115,-2.74115 2.74115,-5.4823 5.48229,-8.22344 v 0 c 0,-2.74115 2.74115,-2.74115 2.74115,-2.74115 v -2.74115 0 c 2.74115,0 2.74115,0 2.74115,-2.74114 v 0 0 c 2.74114,0 2.74114,-2.74115 2.74114,-2.74115 v 0 c 2.74115,-2.74114 2.74115,-2.74114 2.74115,-5.48229 v 0 h 2.74114 v -2.74115 0 h 2.74115 v -5.48229 h 2.74115 v -2.74115 h 2.74114 v 0 -5.48229 h 2.74115 v 0 -2.74115 l 2.74115,-2.74114 v -2.74115 h 2.74114 v -2.74114 -2.74115 0 l 2.74115,-2.74115 v 0 0 l 2.74115,-5.48229 v 0 c 2.74114,0 2.74114,-2.74115 2.74114,-2.74115 v -2.74114 l 2.74115,-2.74115 v 0 l 2.74114,-5.48229 v 0 l 2.74115,-2.74115 v -2.74114 c 0,0 0,-2.74115 0,-2.74115 v 0 l 2.74115,-5.48229 v 0 c 2.74114,0 2.74114,-2.74115 2.74114,-5.4823 v 0 l 2.74115,-2.74114 v 0 -5.48229 h 2.74115 v -5.4823 0 l 2.74114,-5.48229 v 0 c 8.22344,-21.92917 13.70573,-43.85834 19.18803,-68.52866 -49.34064,-21.92916 -145.28076,-32.89375 -219.29171,43.85834 -16.44688,16.44688 -27.41146,32.89376 -38.37605,49.34064 -16.44688,24.67031 -30.15261,43.85834 -52.08178,52.08178 -13.70573,5.48229 -24.67031,5.48229 -38.37605,5.48229 -13.70573,0 -30.15261,0 -49.34063,5.48229 -41.11719,13.70573 -60.30522,52.08178 -76.7521,87.71668 -10.96458,24.67032 -24.67031,49.34064 -41.11719,63.04637 -30.15261,30.15261 -79.4933,112.387 -63.04642,211.06827 z"
   id="path18-3"
   style="clip-rule:evenodd;fill:#df5a49;fill-rule:evenodd;stroke-width:2.74115;image-rendering:optimizeQuality;shape-rendering:geometricPrecision;text-rendering:geometricPrecision" /></g>
  <path
   id="_341084808"
   class="fil0"
   d="M400 0c221,0 400,179 400,400 0,221 -179,400 -400,400 -221,0 -400,-179 -400,-400 0,-221 179,-400 400,-400zm0 34c202,0 366,164 366,366 0,202 -164,366 -366,366 -202,0 -366,-164 -366,-366 0,-202 164,-366 366,-366z" />
  <path
   id="_341084880"
   class="fil2"
   d="M400 23c208,0 377,169 377,377 0,208 -169,377 -377,377 -208,0 -377,-169 -377,-377 0,-208 169,-377 377,-377zm0 11c202,0 366,164 366,366 0,202 -164,366 -366,366 -202,0 -366,-164 -366,-366 0,-202 164,-366 366,-366z" />
 </g>
</svg>
