<?xml version="1.0" encoding="UTF-8"?>
<!DOCTYPE svg PUBLIC "-//W3C//DTD SVG 1.1//EN" "http://www.w3.org/Graphics/SVG/1.1/DTD/svg11.dtd">
<!-- Creator: CorelDRAW -->
<svg xmlns="http://www.w3.org/2000/svg" xml:space="preserve" width="800px" height="800px" version="1.1" style="shape-rendering:geometricPrecision; text-rendering:geometricPrecision; image-rendering:optimizeQuality; fill-rule:evenodd; clip-rule:evenodd"
viewBox="0 0 800 800"
 xmlns:xlink="http://www.w3.org/1999/xlink">
 <defs>
  <style type="text/css">
   <![CDATA[
    .fil3 {fill:#A07858}
    .fil0 {fill:#B28562}
    .fil4 {fill:#CFCFCF}
    .fil2 {fill:#DF5A49}
    .fil1 {fill:#E6E6E6}
   ]]>
  </style>
 </defs>
 <g id="Layer_x0020_1">
  <metadata id="CorelCorpID_0Corel-Layer"/>
  <g id="_490915736">
   <path class="fil0" d="M598 656c-10,0 -21,-3 -30,-9 -4,-2 -6,-6 -17,-20 -6,-9 -16,-21 -20,-26 -16,-15 -30,-19 -45,-23 -14,-4 -28,-8 -43,-22 -38,-33 -62,-94 -63,-96 -2,-5 -1,-10 3,-13l52 -53c5,-4 13,-4 17,0l175 175c17,17 22,39 14,58 -7,18 -24,29 -43,29z"/>
   <path class="fil1" d="M341 505l-145 -145c-26,-27 -41,-68 -41,-113 0,-41 13,-79 34,-99 4,-5 12,-5 17,0l246 246 1 1 -1 -1 -111 111z"/>
   <path class="fil2" d="M341 505l-145 -145c0,0 -1,-1 -1,-1l0 0 0 0 0 0c0,-1 -1,-1 -1,-1l0 0c-1,-1 -1,-1 -1,-2l0 0c-1,0 -1,-1 -1,-1l-1 0 0 0 0 0c0,-1 0,-1 -1,-1l0 0c-1,-1 -1,-2 -2,-3l0 0c0,-1 -1,-1 -1,-1l0 -1 0 0c-1,0 -1,0 -1,-1l0 0 0 0c-1,0 -1,-1 -1,-1l0 0c-1,-1 -1,-1 -1,-2l0 0 -1 0 0 -1 0 0 -1 0 0 -2 -1 0 0 -1 -1 0 0 0 0 -2 -1 0 0 0 0 -1 -1 -1 0 -1 -1 0 0 -1 0 -1 0 0 -1 -1 0 0 0 0 -1 -2 0 0c-1,0 -1,-1 -1,-1l0 -1 -1 -1 0 0 -1 -2 0 0 -1 -1 0 -1c0,0 0,-1 0,-1l0 0 -1 -2 0 0c-1,0 -1,-1 -1,-2l0 0 -1 -1 0 0 0 -2 -1 0 0 -2 0 0 -1 -2 0 0c-3,-8 -5,-16 -7,-25 18,-8 53,-12 80,16 6,6 10,12 14,18 6,9 11,16 19,19 5,2 9,2 14,2 5,0 11,0 18,2 15,5 22,19 28,32 4,9 9,18 15,23 11,11 29,41 23,77l-29 29z"/>
   <circle class="fil3" transform="matrix(0.808439 0.808439 -0.808439 0.808439 512.307 523.185)" r="21"/>
   <circle class="fil3" transform="matrix(0.808439 0.808439 -0.808439 0.808439 575.008 585.886)" r="21"/>
   <circle class="fil4" transform="matrix(0.707107 0.707107 -0.707107 0.707107 575.008 585.886)" r="21"/>
   <circle class="fil4" transform="matrix(0.707107 0.707107 -0.707107 0.707107 512.307 523.185)" r="21"/>
  </g>
  <path id="_341084808" class="fil0" d="M400 0c221,0 400,179 400,400 0,221 -179,400 -400,400 -221,0 -400,-179 -400,-400 0,-221 179,-400 400,-400zm0 34c202,0 366,164 366,366 0,202 -164,366 -366,366 -202,0 -366,-164 -366,-366 0,-202 164,-366 366,-366z"/>
  <path id="_341084880" class="fil2" d="M400 23c208,0 377,169 377,377 0,208 -169,377 -377,377 -208,0 -377,-169 -377,-377 0,-208 169,-377 377,-377zm0 11c202,0 366,164 366,366 0,202 -164,366 -366,366 -202,0 -366,-164 -366,-366 0,-202 164,-366 366,-366z"/>
 </g>
</svg>
