<?xml version="1.0" encoding="iso-8859-1"?>
<!-- Generator: Adobe Illustrator 19.0.0, SVG Export Plug-In . SVG Version: 6.00 Build 0)  -->
<svg version="1.1" id="Capa_1" xmlns="http://www.w3.org/2000/svg" xmlns:xlink="http://www.w3.org/1999/xlink" x="0px" y="0px"
	 viewBox="0 0 469.333 469.333" style="enable-background:new 0 0 469.333 469.333;" xml:space="preserve">
<path style="fill:#303C42;" d="M433.063,193.916L242.208,3.001c-4-4.001-11.083-4.001-15.083,0L36.271,193.916
	C12.875,217.297,0,248.4,0,281.481c0,68.279,55.542,123.835,123.813,123.835c32.708,0,63.833-10.44,89.563-29.758
	c-14.813,43.428-43.521,72.436-74.708,72.436c-5.896,0-10.667,4.772-10.667,10.67s4.771,10.669,10.667,10.669h192
	c5.896,0,10.667-4.772,10.667-10.669s-4.771-10.67-10.667-10.67c-31.188,0-59.896-29.008-74.708-72.436
	c25.729,19.318,56.854,29.758,89.563,29.758c68.271,0,123.813-55.556,123.813-123.835
	C469.333,248.4,456.458,217.297,433.063,193.916z"/>
<path style="fill:#5C6671;" d="M277.125,448h-84.917c18.25-15.781,33.146-39.552,42.458-68.688
	C243.979,408.448,258.875,432.219,277.125,448z"/>
<linearGradient id="SVGID_1_" gradientUnits="userSpaceOnUse" x1="-57.3397" y1="605.0695" x2="-54.7363" y2="602.4621" gradientTransform="matrix(21.3333 0 0 -21.3333 1430.1111 13315.2227)">
	<stop  offset="0" style="stop-color:#000000;stop-opacity:0.1"/>
	<stop  offset="1" style="stop-color:#000000;stop-opacity:0"/>
</linearGradient>
<path style="fill:url(#SVGID_1_);" d="M277.125,448h-84.917c18.25-15.781,33.146-39.552,42.458-68.688
	C243.979,408.448,258.875,432.219,277.125,448z"/>
<path style="fill:#5C6671;" d="M345.521,384c-34.229,0-66.438-13.333-90.667-37.552l-9.938-9.948
	c-2.042-2.052-7.155-3.7-10.041-3.742c-2.661-0.039-7.73,1.023-10.48,3.752l-9.917,9.938C190.25,370.667,158.042,384,123.813,384
	c-56.5,0-102.479-45.969-102.479-102.469c0-27.375,10.667-53.104,30.021-72.458L234.667,25.75l183.313,183.323
	C437.333,228.427,448,254.156,448,281.531C448,338.031,402.021,384,345.521,384z"/>
<g>
	<path style="opacity:0.2;fill:#FFFFFF;enable-background:new    ;" d="M21.333,281.531c0,56.5,45.979,102.469,102.479,102.469
		c7.171,0,14.22-0.717,21.158-1.865c-33.095-8.732-58.304-50.418-58.304-100.604c0-27.375,7.4-53.104,20.827-72.458L234.667,25.75
		L51.354,209.073C32,228.427,21.333,254.156,21.333,281.531z"/>
	<polygon style="opacity:0.2;fill:#FFFFFF;enable-background:new    ;" points="234.664,332.792 234.833,332.764 234.811,332.758 	
		"/>
</g>
<path style="opacity:0.1;enable-background:new    ;" d="M417.979,209.073L234.667,25.75L361.84,209.073
	c13.427,19.354,20.827,45.083,20.827,72.458c0,50.186-25.207,91.872-58.302,100.604c6.938,1.147,13.986,1.865,21.156,1.865
	C402.021,384,448,338.031,448,281.531C448,254.156,437.333,228.427,417.979,209.073z"/>
<polygon style="opacity:0.2;fill:#FFFFFF;enable-background:new    ;" points="234.661,332.793 234.861,332.76 234.85,332.758 "/>
<linearGradient id="SVGID_2_" gradientUnits="userSpaceOnUse" x1="-65.1283" y1="616.3431" x2="-46.0694" y2="607.4552" gradientTransform="matrix(21.3333 0 0 -21.3333 1430.1111 13315.2227)">
	<stop  offset="0" style="stop-color:#FFFFFF;stop-opacity:0.2"/>
	<stop  offset="1" style="stop-color:#FFFFFF;stop-opacity:0"/>
</linearGradient>
<path style="fill:url(#SVGID_2_);" d="M433.063,193.916L242.208,3.001c-4-4.001-11.083-4.001-15.083,0L36.271,193.916
	C12.875,217.297,0,248.4,0,281.481c0,68.279,55.542,123.835,123.813,123.835c32.708,0,63.833-10.44,89.563-29.758
	c-14.813,43.428-43.521,72.436-74.708,72.436c-5.896,0-10.667,4.772-10.667,10.67s4.771,10.669,10.667,10.669h192
	c5.896,0,10.667-4.772,10.667-10.669s-4.771-10.67-10.667-10.67c-31.188,0-59.896-29.008-74.708-72.436
	c25.729,19.318,56.854,29.758,89.563,29.758c68.271,0,123.813-55.556,123.813-123.835
	C469.333,248.4,456.458,217.297,433.063,193.916z"/>
<g>
</g>
<g>
</g>
<g>
</g>
<g>
</g>
<g>
</g>
<g>
</g>
<g>
</g>
<g>
</g>
<g>
</g>
<g>
</g>
<g>
</g>
<g>
</g>
<g>
</g>
<g>
</g>
<g>
</g>
</svg>
