<?xml version="1.0" encoding="UTF-8" standalone="no"?>
<svg
   xmlns:dc="http://purl.org/dc/elements/1.1/"
   xmlns:cc="http://creativecommons.org/ns#"
   xmlns:rdf="http://www.w3.org/1999/02/22-rdf-syntax-ns#"
   xmlns:svg="http://www.w3.org/2000/svg"
   xmlns="http://www.w3.org/2000/svg"
   xmlns:xlink="http://www.w3.org/1999/xlink"
   xmlns:sodipodi="http://sodipodi.sourceforge.net/DTD/sodipodi-0.dtd"
   xmlns:inkscape="http://www.inkscape.org/namespaces/inkscape"
   version="1.1"
   id="Capa_1"
   x="0px"
   y="0px"
   viewBox="0 0 469.333 469.333"
   style="enable-background:new 0 0 469.333 469.333;"
   xml:space="preserve"
   sodipodi:docname="allo.svg"
   inkscape:version="1.0.1 (c497b03c, 2020-09-10)"><metadata
   id="metadata898"><rdf:RDF><cc:Work
       rdf:about=""><dc:format>image/svg+xml</dc:format><dc:type
         rdf:resource="http://purl.org/dc/dcmitype/StillImage" /></cc:Work></rdf:RDF></metadata><defs
   id="defs896" /><sodipodi:namedview
   pagecolor="#ffffff"
   bordercolor="#666666"
   borderopacity="1"
   objecttolerance="10"
   gridtolerance="10"
   guidetolerance="10"
   inkscape:pageopacity="0"
   inkscape:pageshadow="2"
   inkscape:window-width="1280"
   inkscape:window-height="747"
   id="namedview894"
   showgrid="false"
   inkscape:zoom="0.74039594"
   inkscape:cx="111.17925"
   inkscape:cy="202.0677"
   inkscape:window-x="0"
   inkscape:window-y="25"
   inkscape:window-maximized="0"
   inkscape:current-layer="Capa_1" />
<path
   style="fill:#303c42"
   d="m 433.063,275.41725 -190.855,190.915 c -4,4.001 -11.083,4.001 -15.083,0 L 36.271,275.41725 C 12.875,252.03625 0,220.93325 0,187.85225 c 0,-68.279 55.542,-123.835 123.813,-123.835 32.708,0 87.58758,31.777886 113.31758,51.09589 -2.58081,4.44882 31.187,0 0,0 -5.896,0 98.34514,107.75666 98.34514,101.85866 0,-5.898 -100.29391,-88.01061 -100.68949,-93.89332 l -0.23646,-3.51652 c -0.39558,-5.88272 4.17418,14.59433 0.11743,18.87421 -106.54876,112.40923 10.46726,-8.08478 4.57126,-8.08478 -31.188,0 -4.57126,8.08478 -2.10788,-15.23825 25.729,-19.318004 75.68342,-51.09589 108.39242,-51.09589 68.271,0 123.813,55.556 123.813,123.835 -0.003,33.081 -12.878,64.184 -36.273,87.565 z"
   id="path833"
   sodipodi:nodetypes="ccccsscsssssscscc" />
<path
   style="fill:#5c6671"
   d="m 277.125,21.33325 h -84.917 c 18.25,15.781 33.146,39.552 42.458,68.688 9.313,-29.136 24.209,-52.907 42.459,-68.688 z"
   id="path835" />
<linearGradient
   id="SVGID_1_"
   gradientUnits="userSpaceOnUse"
   x1="-57.3397"
   y1="605.0695"
   x2="-54.7363"
   y2="602.4621"
   gradientTransform="matrix(21.3333,0,0,21.3333,1430.1111,-12845.89)">
	<stop
   offset="0"
   style="stop-color:#000000;stop-opacity:0.1"
   id="stop837" />
	<stop
   offset="1"
   style="stop-color:#000000;stop-opacity:0"
   id="stop839" />
</linearGradient>
<path
   style="fill:url(#SVGID_1_)"
   d="m 277.125,21.33325 h -84.917 c 18.25,15.781 27.28513,0.870272 36.59713,30.006272 9.313,-29.136 30.06987,-14.225272 48.31987,-30.006272 z"
   id="path842"
   sodipodi:nodetypes="cccc" />
<path
   style="fill:#5c6671"
   d="m 345.521,85.33325 c -34.229,0 -66.438,13.333 -90.667,37.552 l -9.938,9.948 c -2.042,2.052 -7.155,3.7 -10.041,3.742 -2.661,0.039 -7.73,-1.023 -10.48,-3.752 l -9.917,-9.938 c -24.228,-24.219 -56.436,-37.552 -90.665,-37.552 -56.5,0 -102.479,45.969 -102.479,102.469 0,27.375 10.667,53.104 30.021,72.458 l 183.312,183.323 183.313,-183.323 c 19.353,-19.354 30.02,-45.083 30.02,-72.458 0,-56.5 -45.979,-102.469 -102.479,-102.469 z"
   id="path844" />
<g
   id="g850"
   transform="matrix(1,0,0,-1,0,469.33325)">
	<path
   style="opacity:0.2;fill:#ffffff;enable-background:new"
   d="m 21.333,281.531 c 0,56.5 45.979,102.469 102.479,102.469 7.171,0 14.22,-0.717 21.158,-1.865 -33.095,-8.732 -58.304,-50.418 -58.304,-100.604 0,-27.375 7.4,-53.104 20.827,-72.458 L 234.667,25.75 51.354,209.073 C 32,228.427 21.333,254.156 21.333,281.531 Z"
   id="path846" />
	<polygon
   style="opacity:0.2;fill:#ffffff;enable-background:new"
   points="234.833,332.764 234.811,332.758 234.664,332.792 "
   id="polygon848" />
</g>
<path
   style="opacity:0.1;enable-background:new"
   d="m 417.979,260.26025 -183.312,183.323 127.173,-183.323 c 13.427,-19.354 20.827,-45.083 20.827,-72.458 0,-50.186 -25.207,-91.872 -58.302,-100.604 6.938,-1.147 13.986,-1.865 21.156,-1.865 56.5,0 102.479,45.969 102.479,102.469 0,27.375 -10.667,53.104 -30.021,72.458 z"
   id="path852" />
<polygon
   style="opacity:0.2;fill:#ffffff;enable-background:new"
   points="234.861,332.76 234.85,332.758 234.661,332.793 "
   id="polygon854"
   transform="matrix(1,0,0,-1,0,469.33325)" />
<linearGradient
   id="SVGID_2_"
   gradientUnits="userSpaceOnUse"
   x1="-65.128304"
   y1="616.34308"
   x2="-46.069401"
   y2="607.4552"
   gradientTransform="matrix(21.3333,0,0,21.3333,1430.1111,-12845.89)"
   xlink:href="#SVGID_1_">
	<stop
   offset="0"
   style="stop-color:#FFFFFF;stop-opacity:0.2"
   id="stop856" />
	<stop
   offset="1"
   style="stop-color:#FFFFFF;stop-opacity:0"
   id="stop858" />
</linearGradient>
<path
   style="fill:url(#SVGID_2_);fill-opacity:1"
   d="m 433.063,275.41725 -190.855,190.915 c -4,4.001 -11.083,4.001 -15.083,0 L 36.271,275.41725 C 12.875,252.03625 0,220.93325 0,187.85225 c 0,-68.279 55.542,-123.835 123.813,-123.835 32.708,0 88.75975,48.18832 114.48975,67.50632 -14.813,-43.428003 31.187,0 0,0 -5.896,0 51.49265,5.99972 -0.11744,-16.53087 -18.87754,-8.24107 0.32312,2.35303 -1.05473,8.08578 l -1.40864,5.86086 c -1.37785,5.73275 21.21656,1.25548 21.21656,7.15248 0,5.897 -129.91747,107.14922 -34.11047,-8.08478 19.93887,-23.98192 26.64497,-34.89479 11.83297,8.53321 25.729,-19.318 78.153,-72.523 110.862,-72.523 68.271,0 123.813,55.556 123.813,123.835 -0.003,33.081 -12.878,64.184 -36.273,87.565 z"
   id="path861"
   sodipodi:nodetypes="ccccsscsssssscscc" />
<g
   id="g863"
   transform="matrix(1,0,0,-1,0,469.33325)">
</g>
<g
   id="g865"
   transform="matrix(1,0,0,-1,0,469.33325)">
</g>
<g
   id="g867"
   transform="matrix(1,0,0,-1,0,469.33325)">
</g>
<g
   id="g869"
   transform="matrix(1,0,0,-1,0,469.33325)">
</g>
<g
   id="g871"
   transform="matrix(1,0,0,-1,0,469.33325)">
</g>
<g
   id="g873"
   transform="matrix(1,0,0,-1,0,469.33325)">
</g>
<g
   id="g875"
   transform="matrix(1,0,0,-1,0,469.33325)">
</g>
<g
   id="g877"
   transform="matrix(1,0,0,-1,0,469.33325)">
</g>
<g
   id="g879"
   transform="matrix(1,0,0,-1,0,469.33325)">
</g>
<g
   id="g881"
   transform="matrix(1,0,0,-1,0,469.33325)">
</g>
<g
   id="g883"
   transform="matrix(1,0,0,-1,0,469.33325)">
</g>
<g
   id="g885"
   transform="matrix(1,0,0,-1,0,469.33325)">
</g>
<g
   id="g887"
   transform="matrix(1,0,0,-1,0,469.33325)">
</g>
<g
   id="g889"
   transform="matrix(1,0,0,-1,0,469.33325)">
</g>
<g
   id="g891"
   transform="matrix(1,0,0,-1,0,469.33325)">
</g>
</svg>
