<svg height="512pt" viewBox="0 -8 512 512" width="512pt" xmlns="http://www.w3.org/2000/svg"><path d="m510.78125 93.589844c-6.707031-49.046875-36.390625-83.335938-79.394531-91.722656-20.25-3.949219-42.105469-1.582032-61.542969 6.664062-14.605469 6.199219-27.109375 15.226562-36.878906 26.527344 8.15625 10.109375 14.539062 22.144531 18.863281 35.777344.804687-.992188 1.539063-2.042969 2.183594-3.167969 13.167969-22.929688 42.792969-35.660157 70.445312-30.269531 16.152344 3.152343 44.1875 15.277343 50.457031 61.097656 3.117188 22.792968-2.175781 46.3125-15.730468 69.910156-11.480469 19.980469-28.808594 40.0625-51.5 59.691406-29.515625 25.53125-60.566406 43.636719-74.753906 51.34375-14.078126-7.636718-44.738282-25.5-74.199219-50.878906-22.839844-19.675781-40.292969-39.8125-51.867188-59.855469-13.683593-23.699219-19.035156-47.320312-15.902343-70.210937 2.207031-16.144532 7.125-28.089844 13.265624-36.949219-1.496093 1.949219-2.863281 3.992187-4.085937 6.121094-4.328125 7.535156-12.402344 12.21875-21.074219 12.21875-7.382812 0-14.320312-3.398438-18.894531-9.050781-2.273437 7.164062-3.988281 14.757812-5.078125 22.753906-4.246094 31.035156 2.625 62.398437 20.421875 93.21875 13.613281 23.574218 33.660156 46.851562 59.589844 69.183594 31.496093 27.132812 63.765625 46.136718 79.730469 54.832031v123.804687l-22.40625-22.03125c-7.128907-7.007812-18.589844-6.910156-25.597657.21875-7.007812 7.128906-6.910156 18.589844.21875 25.597656l53.199219 52.304688c3.519531 3.464844 8.105469 5.195312 12.6875 5.195312 4.585938 0 9.171875-1.730468 12.691406-5.195312l53.199219-52.304688c7.128906-7.007812 7.222656-18.46875.214844-25.597656-7.007813-7.128906-18.46875-7.226562-25.597657-.21875l-22.40625 22.03125v-123.804687c15.96875-8.695313 48.234376-27.699219 79.730469-54.832031 25.929688-22.332032 45.980469-45.609376 59.589844-69.179688 17.796875-30.824219 24.667969-62.1875 20.421875-93.222656zm0 0" fill="#cc98e8"/><g fill="#bf80e2"><path d="m345.460938 54.890625c2.449218 5.035156 4.589843 10.347656 6.367187 15.945313.804687-.988282 1.539063-2.042969 2.183594-3.164063 9.65625-16.816406 28.160156-28.132813 48.242187-30.855469-20.871094-2.890625-42.402344 4.25-56.792968 18.074219zm0 0"/><path d="m510.78125 93.589844c-6.707031-49.046875-36.390625-83.335938-79.394531-91.722656-9.417969-1.8398442-19.183594-2.289063-28.890625-1.4375 3.457031.308593 6.886718.777343 10.273437 1.4375 43.007813 8.386718 72.6875 42.675781 79.398438 91.722656 4.246093 31.035156-2.625 62.398437-20.421875 93.222656-13.613282 23.570312-33.664063 46.847656-59.589844 69.179688-29.839844 25.703124-60.371094 44.113281-77.078125 53.371093-1.640625.910157-2.65625 2.640625-2.65625 4.519531v112.945313c0 9.703125 11.695313 14.605469 18.617187 7.800781v-123.804687c15.96875-8.695313 48.234376-27.699219 79.730469-54.832031 25.929688-22.332032 45.980469-45.609376 59.589844-69.179688 17.796875-30.824219 24.667969-62.1875 20.421875-93.222656zm0 0"/><path d="m376.824219 410c1.285156.773438 2.5 1.699219 3.601562 2.816406 7.007813 7.128906 6.910157 18.589844-.214843 25.597656l-53.199219 52.304688c-1.042969 1.023438-2.183594 1.878906-3.382813 2.597656 2.855469 1.71875 6.078125 2.597656 9.308594 2.597656 4.582031 0 9.167969-1.730468 12.6875-5.195312l53.199219-52.304688c7.128906-7.007812 7.226562-18.46875.214843-25.597656-5.984374-6.089844-15.207031-7.03125-22.214843-2.816406zm0 0"/><path d="m258.730469 228.566406c-22.84375-19.675781-40.292969-39.816406-51.867188-59.859375-13.683593-23.699219-19.035156-47.320312-15.902343-70.210937 2.207031-16.136719 7.117187-28.078125 13.253906-36.9375-1.488282 1.945312-2.851563 3.984375-4.074219 6.113281-4.328125 7.535156-12.402344 12.214844-21.078125 12.214844-.816406 0-1.625-.054688-2.429688-.136719-1.859374 5.523438-3.332031 11.738281-4.289062 18.746094-3.132812 22.890625 2.21875 46.511718 15.90625 70.210937 11.570312 20.042969 29.023438 40.183594 51.863281 59.859375 27.828125 23.972656 64.734375 46.214844 80.601563 55.039063 1.585937.882812 3.515625.863281 5.089844-.046875l7.132812-4.121094c-.003906 0-.007812.003906-.011719.003906-14.074219-7.632812-44.734375-25.5-74.195312-50.875zm0 0"/></g><path d="m356.910156 93.589844c-6.710937-49.046875-36.390625-83.335938-79.398437-91.722656-20.25-3.949219-42.105469-1.582032-61.542969 6.664062-14.617188 6.203125-27.132812 15.246094-36.90625 26.5625-9.769531-11.316406-22.289062-20.359375-36.90625-26.5625-19.433594-8.246094-41.292969-10.617188-61.542969-6.664062-43.003906 8.386718-72.6875 42.675781-79.394531 91.722656-4.246094 31.035156 2.625 62.398437 20.421875 93.21875 13.613281 23.574218 33.660156 46.851562 59.589844 69.183594 31.496093 27.132812 63.765625 46.136718 79.730469 54.832031v123.804687l-22.40625-22.03125c-7.128907-7.007812-18.589844-6.910156-25.597657.21875-7.007812 7.128906-6.910156 18.589844.21875 25.597656l53.199219 52.304688c3.519531 3.464844 8.105469 5.195312 12.6875 5.195312 4.585938 0 9.171875-1.730468 12.691406-5.195312l53.199219-52.304688c7.128906-7.007812 7.222656-18.46875.214844-25.597656-7.007813-7.128906-18.46875-7.226562-25.597657-.21875l-22.40625 22.03125v-123.804687c12.425782-6.765625 34.71875-19.773438 58.835938-37.992188-6.878906-5.195312-13.90625-10.816406-20.894531-16.839843-2.683594-2.308594-5.28125-4.632813-7.835938-6.964844-20.121093 14.542968-38.292969 25.023437-48.214843 30.414062-14.074219-7.632812-44.734376-25.5-74.195313-50.875-22.84375-19.675781-40.292969-39.816406-51.867187-59.859375-13.683594-23.699219-19.035157-47.320312-15.90625-70.210937 6.269531-45.820313 34.304687-57.945313 50.460937-61.097656 4.257813-.828126 8.558594-1.230469 12.84375-1.230469 23.539063 0 46.460937 12.101562 57.597656 31.5v.003906c4.328125 7.535156 12.402344 12.214844 21.078125 12.214844 8.671875 0 16.75-4.679688 21.074219-12.21875 13.167969-22.929688 42.792969-35.660157 70.445313-30.269531 16.152343 3.152343 44.1875 15.277343 50.457031 61.097656 3.121093 22.792968-2.171875 46.3125-15.730469 69.910156-11.105469 19.328125-27.699219 38.75-49.304688 57.761719.90625.800781 1.800782 1.597656 2.726563 2.394531 8.714844 7.511719 17.535156 14.351562 26 20.472656 22.152344-20.191406 39.550781-41.089844 51.753906-62.226562 17.796875-30.820313 24.667969-62.183594 20.421875-93.21875zm0 0" fill="#8bcaff"/><g fill="#60b8ff"><path d="m181.523438 67.667969c-2.710938 4.722656-6.890626 8.320312-11.769532 10.351562 2.910156 1.210938 6.066406 1.867188 9.308594 1.867188 8.675781 0 16.75-4.683594 21.078125-12.21875 9.652344-16.8125 28.15625-28.132813 48.242187-30.855469-26.589843-3.675781-54.261718 8.914062-66.859374 30.855469zm0 0"/><path d="m222.953125 410c1.28125.773438 2.5 1.699219 3.601563 2.816406 7.007812 7.128906 6.910156 18.589844-.21875 25.597656l-53.195313 52.304688c-1.042969 1.023438-2.183594 1.878906-3.382813 2.597656 2.855469 1.71875 6.078126 2.597656 9.304688 2.597656 4.585938 0 9.171875-1.730468 12.691406-5.195312l53.199219-52.304688c7.128906-7.007812 7.222656-18.46875.214844-25.597656-5.984375-6.089844-15.207031-7.03125-22.214844-2.816406zm0 0"/><path d="m104.855469 228.566406c-22.839844-19.675781-40.289063-39.816406-51.863281-59.859375-13.6875-23.699219-19.039063-47.320312-15.90625-70.210937 6.269531-45.820313 34.304687-57.945313 50.457031-61.097656 1.195312-.230469 2.394531-.421876 3.59375-.585938-3.09375-.421875-6.222657-.644531-9.363281-.644531-4.285157 0-8.585938.402343-12.84375 1.230469-16.15625 3.152343-44.191407 15.277343-50.460938 61.097656-3.128906 22.890625 2.222656 46.511718 15.90625 70.210937 11.574219 20.042969 29.023438 40.183594 51.867188 59.859375 27.828124 23.96875 64.730468 46.214844 80.597656 55.039063 1.589844.882812 3.519531.863281 5.089844-.046875l7.132812-4.121094c-.003906 0-.003906 0-.007812.003906-14.074219-7.632812-44.738282-25.5-74.199219-50.875zm0 0"/><path d="m142.15625 8.53125c-16.1875-6.867188-34.050781-9.644531-51.265625-8.101562 11.164063.976562 22.253906 3.691406 32.648437 8.101562 13.242188 5.621094 30.09375 17.382812 42.503907 31.6875 1.992187 2.292969 5.550781 2.371094 7.628906.152344 1.726563-1.847656 3.523437-3.640625 5.390625-5.277344-9.769531-11.316406-22.289062-20.359375-36.90625-26.5625zm0 0"/><path d="m246.695312 265.597656c-25.921874 20.707032-50.945312 35.707032-65.492187 43.765625-1.640625.910157-2.652344 2.640625-2.652344 4.519531v112.945313c0 9.703125 11.695313 14.605469 18.613281 7.800781v-123.804687c12.425782-6.765625 34.71875-19.773438 58.835938-37.992188-3.078125-2.324219-6.183594-4.742187-9.304688-7.234375zm0 0"/><path d="m356.910156 93.589844c-6.710937-49.046875-36.390625-83.335938-79.398437-91.722656-9.417969-1.8398442-19.183594-2.289063-28.890625-1.4375 3.457031.308593 6.890625.777343 10.277344 1.4375 43.003906 8.386718 72.6875 42.675781 79.394531 91.722656 4.246093 31.035156-2.625 62.398437-20.421875 93.222656-10.648438 18.441406-25.257813 36.699219-43.519532 54.472656 3.496094 2.699219 6.964844 5.285156 10.378907 7.753906 22.15625-20.195312 39.550781-41.089843 51.757812-62.226562 17.796875-30.824219 24.667969-62.1875 20.421875-93.222656zm0 0"/></g></svg>