<svg height="402.1" preserveAspectRatio="xMidYMid meet" viewBox="-2 54 516.001 406.102" width="512" xmlns="http://www.w3.org/2000/svg" xmlns:xlink="http://www.w3.org/1999/xlink"><defs><path id="a" d="m430.14 196.85-.45 7.32-.62 7.25-.79 7.17-.96 7.09-1.13 7.01-1.3 6.91-1.45 6.83-1.61 6.73-1.77 6.64-1.92 6.53-2.07 6.43-2.22 6.32-2.37 6.21-2.5 6.1-2.65 5.98-2.78 5.85-2.92 5.74-3.06 5.6-3.18 5.48-3.3 5.34-3.43 5.2-3.56 5.06-3.67 4.92-3.79 4.77-3.9 4.61-4.01 4.47-4.12 4.3-4.23 4.15-4.33 3.98-4.42 3.81-4.53 3.64-4.62 3.47-4.72 3.28-4.8 3.11-4.89 2.92-4.98 2.74-5.05 2.54-5.14 2.35 1.39.93 1.37.96 1.36.97 1.34 1 1.33 1.02 1.31 1.03 1.29 1.06 1.28 1.08 1.26 1.1 1.24 1.12 1.23 1.13 1.21 1.16 1.19 1.18 1.17 1.19 1.15 1.22 1.14 1.23 1.11 1.25 1.1 1.27 1.07 1.29 1.06 1.31 1.04 1.33 1.01 1.34 1 1.36.97 1.38.95 1.39.93 1.42.91 1.43.89 1.44.86 1.47.84 1.48.82 1.49.8 1.51.77 1.53.74 1.55.73 1.56.7 1.57.67 1.59.65 1.61.62 1.62.6 1.63-28.2 10.2-.82-2.23-.89-2.19-.95-2.16-1.01-2.11-1.08-2.07-1.14-2.04-1.2-1.98-1.25-1.95-1.31-1.9-1.37-1.85-1.42-1.81-1.47-1.76-1.53-1.71-1.57-1.66-1.62-1.61-1.67-1.56-1.71-1.51-1.76-1.45-1.8-1.4-1.84-1.35-1.88-1.28-1.92-1.24-1.96-1.17-1.99-1.11-2.03-1.05-2.06-1-2.09-.93-2.13-.86-2.15-.81-2.18-.74-2.2-.67-2.23-.61-2.26-.53-2.27-.47-2.3-.4-2.31-.33-2.34-.26-2.35-.19-2.36-.11-2.38-.04-2.38.04-2.36.11-2.35.19-2.34.26-2.31.33-2.3.4-2.27.47-2.26.53-2.23.61-2.2.67-2.18.74-2.15.81-2.12.86-2.1.93-2.06 1-2.03 1.05-1.99 1.11-1.96 1.17-1.92 1.24-1.88 1.28-1.84 1.35-1.8 1.4-1.76 1.45-1.71 1.51-1.67 1.56-1.62 1.61-1.57 1.66-1.53 1.71-1.47 1.76-1.42 1.81-1.37 1.85-1.31 1.9-1.25 1.95-1.2 1.98-1.14 2.04-1.08 2.07-1.01 2.11-.95 2.16-.89 2.19-.82 2.23-28.2-10.2.6-1.63.62-1.62.65-1.61.67-1.59.7-1.57.73-1.56.74-1.55.77-1.53.8-1.51.82-1.49.84-1.48.86-1.47.89-1.44.91-1.43.93-1.42.95-1.39.97-1.38 1-1.36 1.01-1.34 1.04-1.33 1.06-1.31 1.07-1.29 1.1-1.27 1.11-1.25 1.14-1.23 1.15-1.22 1.17-1.19 1.2-1.18 1.2-1.16 1.23-1.13 1.24-1.12 1.26-1.1 1.28-1.08 1.29-1.06 1.32-1.03 1.32-1.02 1.34-1 1.36-.97 1.37-.96 1.39-.93-5.13-2.35-5.06-2.54-4.98-2.74-4.89-2.92-4.8-3.11-4.72-3.28-4.62-3.47-4.52-3.64-4.43-3.81-4.33-3.98-4.23-4.15-4.12-4.3-4.01-4.47-3.9-4.61-3.79-4.77-3.67-4.92-3.55-5.06-3.44-5.2-3.3-5.34-3.18-5.48-3.06-5.6-2.91-5.74-2.79-5.85-2.65-5.98-2.5-6.1-2.37-6.21-2.22-6.32-2.07-6.43-1.92-6.53-1.77-6.64-1.61-6.73-1.45-6.83-1.3-6.91-1.12-7.01-.97-7.09-.79-7.17-.62-7.25-.45-7.32-.27-7.39-.09-7.46h30l.03 4.08.09 4.07.15 4.04.2 4.01.26 3.99.33 3.97.37 3.94.43 3.91.49 3.89.55 3.86.59 3.82.66 3.8.7 3.77.76 3.74.81 3.7.87 3.68.91 3.64.97 3.6 1.01 3.57 1.07 3.53 1.12 3.5 1.16 3.46 1.21 3.42 1.27 3.39 1.3 3.34 1.36 3.3 1.4 3.26 1.45 3.22 1.49 3.18 1.54 3.14 1.59 3.08 1.62 3.05 1.67 3 1.72 2.95 1.75 2.91 1.8 2.86 1.84 2.8 1.88 2.76 1.92 2.71 1.96 2.66 1.98 2.61 2.01 2.55 2.05 2.5 2.09 2.45 2.12 2.39 2.16 2.34 2.2 2.28 2.23 2.22 2.26 2.17 2.3 2.11 2.33 2.05 2.36 1.99 2.39 1.93 2.43 1.87 2.45 1.81 2.49 1.75 2.52 1.68 2.54 1.62 2.58 1.55 2.6 1.49 2.63 1.43 2.65 1.35 2.69 1.29 2.7 1.23 2.74 1.15 2.76 1.08 2.78 1.02 2.81.94 2.83.87 2.85.8 2.88.73 2.9.65 2.91.58 2.94.51 2.96.43 2.98.35 3 .27 3.01.2 3.04.12 3.05.04 6.09-.16 6.01-.47 5.94-.79 5.86-1.08 5.78-1.39 5.69-1.67 5.6-1.97 5.5-2.24 5.4-2.51 5.29-2.79 5.18-3.05 5.07-3.3 4.95-3.56 4.83-3.8 4.71-4.05 4.57-4.27 4.43-4.51 4.3-4.73 4.15-4.94 4-5.16 3.85-5.36 3.69-5.56 3.53-5.75 3.36-5.95 3.2-6.12 3.02-6.3 2.84-6.47 2.65-6.64 2.47-6.8 2.28-6.95 2.08-7.09 1.88-7.24 1.68-7.38 1.46-7.5 1.26-7.63 1.03-7.75.81-7.86.59-7.97.35-8.07.12-8.17h30l-.09 7.46z"/><path id="b" d="m430.14 196.86-.45 7.32-.62 7.24-.79 7.17-.96 7.09-1.13 7.01-1.3 6.92-1.45 6.82-1.61 6.73-1.77 6.64-1.92 6.53-2.07 6.43-2.22 6.32-2.37 6.21-2.5 6.1-2.65 5.98-2.78 5.85-2.92 5.74-3.06 5.6-3.18 5.48-3.3 5.34-3.43 5.2-3.56 5.06-3.67 4.92-3.79 4.77-3.9 4.61-4.01 4.47-4.12 4.3-4.23 4.15-4.33 3.98-4.42 3.81-4.53 3.64-4.62 3.47-4.72 3.28-4.8 3.11-4.89 2.92-4.98 2.74-5.05 2.54-5.14 2.35 1.39.93 1.37.96 1.36.97 1.34 1 1.33 1.02 1.31 1.03 1.29 1.06 1.28 1.08 1.26 1.1 1.24 1.12 1.23 1.13 1.21 1.16 1.19 1.18 1.17 1.19 1.15 1.22 1.14 1.23 1.11 1.25 1.1 1.27 1.07 1.29 1.06 1.31 1.04 1.33 1.01 1.34 1 1.36.97 1.38.95 1.39.93 1.42.91 1.43.89 1.44.86 1.47.84 1.48.82 1.49.8 1.51.77 1.53.74 1.55.73 1.56.7 1.57.67 1.59.65 1.61.62 1.62.6 1.63-28.2 10.2-.82-2.23-.89-2.19-.95-2.16-1.01-2.11-1.08-2.07-1.14-2.04-1.2-1.98-1.25-1.95-1.31-1.9-1.37-1.85-1.42-1.81-1.47-1.76-1.53-1.71-1.57-1.66-1.62-1.61-1.67-1.56-1.71-1.51-1.76-1.45-1.8-1.4-1.84-1.35-1.88-1.28-1.92-1.24-1.96-1.17-1.99-1.11-2.03-1.05-2.06-1-2.09-.93-2.13-.86-2.15-.81-2.18-.74-2.2-.67-2.23-.61-2.26-.53-2.27-.47-2.3-.4-2.31-.33-2.34-.26-2.35-.19-2.36-.11-2.38-.04v-30l6.09-.16 6.01-.47 5.94-.78 5.86-1.09 5.78-1.38 5.69-1.68 5.6-1.96 5.5-2.24 5.4-2.52 5.29-2.79 5.18-3.05 5.07-3.3 4.95-3.56 4.83-3.8 4.71-4.04 4.57-4.28 4.43-4.51 4.3-4.72 4.15-4.95 4-5.15 3.85-5.37 3.69-5.56 3.53-5.75 3.36-5.94 3.2-6.13 3.02-6.3 2.84-6.47 2.65-6.64 2.47-6.79 2.28-6.95 2.08-7.1 1.88-7.24 1.68-7.37 1.46-7.51 1.26-7.63 1.03-7.75.81-7.86.59-7.97.35-8.07.12-8.17h30l-.09 7.46z"/><path id="c" d="m398.12 318.08 1.04.02 1.1.03 1.16.06 1.22.07 1.27.11 1.34.13 1.39.17 1.46.2 1.5.25 1.57.3 1.62.35 1.68.4 1.73.46 1.79.53 1.85.59 1.89.66 1.96.74 2 .81 2.06.9 2.11.99 2.16 1.08 2.22 1.17 2.26 1.27 2.32 1.38 2.37 1.48 2.42 1.59 2.46 1.71 2.52 1.83 2.57 1.95 2.61 2.08 2.66 2.21 2.71 2.34 2.76 2.48 2.8 2.63 2.85 2.77 2.89 2.93 2.94 3.08 2.99 3.24-2.04 2.23-2.03 2.17-2.02 2.12-2.02 2.05-2 2-2 1.95-1.99 1.89-1.99 1.83-1.98 1.77-1.98 1.72-1.97 1.66-1.97 1.6-1.96 1.55-1.97 1.49-1.96 1.43-1.96 1.38-1.96 1.32-1.96 1.27-1.97 1.2-1.96 1.16-1.96 1.09-1.97 1.04-1.97.98-1.98.93-1.98.87-1.98.81-1.99.76-1.99.7-2 .64-2.01.59-2.02.53-2.03.48-2.03.42-2.04.36-2.06.31-2.06.25-2.08.2-2.09.14-2.1.08-2.11.03h-.92l-.98-.01-1.04-.02-1.1-.03-1.16-.06-1.21-.07-1.28-.1-1.34-.14-1.39-.16-1.45-.21-1.51-.25-1.57-.3-1.62-.34-1.68-.41-1.73-.46-1.79-.52-1.84-.59-1.9-.66-1.95-.74-2.01-.82-2.05-.9-2.11-.98-2.17-1.08-2.21-1.17-2.27-1.27-2.31-1.38-2.37-1.48-2.42-1.59-2.46-1.71-2.52-1.83-2.57-1.95-2.61-2.08-2.66-2.21-2.71-2.34-2.75-2.49-2.81-2.63-2.84-2.77-2.9-2.93-2.94-3.08-2.98-3.24 2.04-2.23 2.02-2.17 2.02-2.11 2.02-2.06 2-2 2-1.95 1.99-1.88 1.98-1.84 1.98-1.77 1.98-1.72 1.97-1.66 1.97-1.6 1.97-1.55 1.96-1.49 1.96-1.43 1.96-1.38 1.96-1.32 1.96-1.27 1.96-1.2 1.97-1.15 1.96-1.1 1.97-1.04 1.97-.98 1.97-.93 1.98-.87 1.99-.81 1.99-.76 1.99-.7 2-.64 2.01-.59 2.02-.53 2.03-.48 2.03-.42 2.04-.36 2.06-.31 2.06-.25 2.08-.2 2.09-.14 2.1-.08 2.12-.03h.91z"/><path id="d" d="m476.77 198.12 3.32.2 3.44.28 3.56.37 3.67.45 3.8.54 3.92.64 4.04.73 4.18.84 4.3.94-.39 2.99-.41 2.95-.44 2.89-.46 2.84-.49 2.79-.52 2.74-.54 2.69-.56 2.64-.6 2.58-.62 2.55-.65 2.49-.68 2.44-.71 2.4-.74 2.34-.77 2.3-.8 2.26-.83 2.21-.86 2.16-.9 2.11-.93 2.07-.97 2.03-1 1.98-1.03 1.93-1.07 1.89-1.11 1.85-1.14 1.8-1.18 1.77-1.22 1.71-1.26 1.68-1.29 1.64-1.34 1.59-1.37 1.55-1.42 1.51-1.46 1.47-1.5 1.43-1.54 1.4-1.58 1.35-1.63 1.31-1.67 1.27-1.71 1.24-2.09 1.41-2.11 1.33-2.12 1.25-2.15 1.17-2.16 1.09-2.18 1.01-2.19.94-2.21.87-2.23.8-2.24.72-2.25.67-2.26.59-2.28.53-2.28.47-2.3.41-2.3.35-2.31.3-2.33.24-2.32.18-2.34.14-2.34.08-2.34.04-2.35-.01-2.35-.05-2.35-.1-2.36-.13-2.35-.18-2.36-.21-2.36-.25-2.35-.28-2.35-.32-2.35-.34-2.35-.37-2.34-.4-2.33-.43-2.33-.44-2.32-.47-2.32-.49-2.31-.51-2.29-.52.39-2.99.41-2.94.45-2.89.46-2.84.5-2.79.52-2.74.55-2.69.58-2.63.6-2.59.63-2.54.67-2.49.69-2.44.72-2.4.76-2.35.78-2.3.82-2.25.84-2.21.88-2.16.92-2.11.95-2.07.98-2.02 1.01-1.98 1.05-1.94 1.09-1.89 1.12-1.85 1.16-1.8 1.19-1.76 1.23-1.72 1.27-1.68 1.31-1.63 1.35-1.6 1.38-1.55 1.43-1.51 1.46-1.47 1.51-1.43 1.54-1.39 1.59-1.35 1.63-1.32 1.67-1.27 1.72-1.24.75-.52.81-.55.85-.58.92-.61.97-.62 1.04-.63 1.09-.65 1.16-.66 1.23-.66 1.3-.66 1.37-.66 1.43-.66 1.52-.64 1.59-.64 1.67-.61 1.75-.6 1.83-.57 1.92-.55 2.01-.51 2.09-.48 2.19-.45 2.28-.4 2.37-.36 2.47-.31 2.57-.26 2.67-.2 2.78-.14 2.88-.09 2.99-.01 3.09.05z"/><path id="e" d="m476.99 60.55 1.07 2.72 1.01 2.69.97 2.67.91 2.63.87 2.6.82 2.58.77 2.54.72 2.52.67 2.49.62 2.46.58 2.43.52 2.41.47 2.39.42 2.36.36 2.33.32 2.31.27 2.29.21 2.27.16 2.24.11 2.22.06 2.2v2.19l-.04 2.16-.1 2.14-.16 2.12-.21 2.1-.26 2.09-.31 2.07-.37 2.05-.43 2.04-.48 2.02-.53 2.01-.59 1.99-.64 1.98-.7 1.96-.76 1.95-.81 1.94-.87 1.93-.39.83-.42.88-.46.94-.49.98-.54 1.03-.58 1.07-.64 1.11-.68 1.16-.74 1.19-.8 1.23-.87 1.26-.93 1.29-1 1.32-1.07 1.35-1.15 1.38-1.23 1.4-1.32 1.42-1.4 1.44-1.49 1.46-1.59 1.47-1.69 1.48-1.78 1.5-1.89 1.5-2 1.52-2.11 1.51-2.23 1.52-2.34 1.52-2.47 1.52-2.59 1.51-2.72 1.51-2.85 1.5-2.99 1.49-3.12 1.48-3.27 1.47-3.42 1.44-3.56 1.44-3.72 1.41-3.87 1.38-4.04 1.37-4.2 1.33-1.15-2.79-1.11-2.75-1.07-2.73-1.01-2.69-.97-2.67-.91-2.63-.87-2.61-.82-2.57-.77-2.54-.72-2.52-.68-2.49-.62-2.46-.57-2.44-.52-2.41-.47-2.39-.42-2.35-.37-2.34-.31-2.31-.27-2.29-.21-2.27-.16-2.24-.11-2.22-.06-2.2-.01-2.18.05-2.17.1-2.14.16-2.12.21-2.1.26-2.09.31-2.07.37-2.05.43-2.04.48-2.02.53-2.01.59-1.99.64-1.98.7-1.96.76-1.95.81-1.94.87-1.93.39-.83.42-.89.46-.93.49-.98.54-1.03.58-1.07.63-1.11.69-1.16.74-1.19.8-1.23.86-1.26.94-1.29 1-1.33 1.07-1.35 1.15-1.37 1.23-1.4 1.32-1.42 1.4-1.44 1.49-1.46 1.59-1.47 1.68-1.49 1.79-1.49 1.89-1.51 2-1.51 2.11-1.51 2.22-1.52 2.35-1.52 2.46-1.52 2.59-1.51 2.72-1.51 2.85-1.5 2.99-1.49 3.13-1.48 3.27-1.46 3.41-1.45 3.57-1.43 3.72-1.41 3.87-1.38 4.04-1.37 4.2-1.33 1.16 2.79z"/><path id="f" d="m115.63 318.08 1.03.02 1.1.03 1.16.06 1.22.07 1.28.11 1.33.13 1.4.17 1.45.2 1.51.25 1.56.3 1.63.35 1.67.4 1.74.46 1.79.53 1.84.59 1.9.66 1.95.74 2 .81 2.06.9 2.11.99 2.17 1.08 2.21 1.17 2.27 1.27 2.31 1.38 2.37 1.48 2.42 1.59 2.47 1.71 2.51 1.83 2.57 1.95 2.61 2.08 2.66 2.21 2.71 2.34 2.76 2.48 2.8 2.63 2.85 2.77 2.9 2.93 2.94 3.08 2.98 3.24-2.04 2.23-2.03 2.17-2.02 2.12-2.01 2.05-2.01 2-2 1.95-1.99 1.89-1.98 1.83-1.99 1.77-1.97 1.72-1.97 1.66-1.97 1.6-1.97 1.55-1.96 1.49-1.97 1.43-1.96 1.38-1.96 1.32-1.96 1.27-1.96 1.2-1.97 1.16-1.96 1.09-1.97 1.04-1.97.98-1.97.93-1.98.87-1.99.81-1.98.76-2 .7-2 .64-2.01.59-2.02.53-2.02.48-2.04.42-2.04.36-2.05.31-2.07.25-2.08.2-2.08.14-2.11.08-2.11.03h-.92l-.97-.01-1.04-.02-1.1-.03-1.16-.06-1.22-.07-1.28-.1-1.33-.14-1.4-.16-1.45-.21-1.51-.25-1.56-.3-1.62-.34-1.68-.41-1.74-.46-1.79-.52-1.84-.59-1.9-.66-1.95-.74-2-.82-2.06-.9-2.11-.98-2.16-1.08-2.22-1.17-2.26-1.27-2.32-1.38-2.37-1.48-2.41-1.59-2.47-1.71-2.52-1.83-2.56-1.95-2.62-2.08-2.66-2.21-2.7-2.34-2.76-2.49-2.8-2.63-2.85-2.77-2.89-2.93-2.94-3.08-2.99-3.24 2.04-2.23 2.03-2.17 2.02-2.11 2.01-2.06 2-2 2-1.95 1.99-1.88 1.99-1.84 1.98-1.77 1.97-1.72 1.97-1.66 1.97-1.6 1.97-1.55 1.96-1.49 1.96-1.43 1.97-1.38 1.96-1.32 1.96-1.27 1.96-1.2 1.96-1.15 1.97-1.1 1.96-1.04 1.97-.98 1.98-.93 1.98-.87 1.98-.81 1.99-.76 1.99-.7 2.01-.64 2.01-.59 2.01-.53 2.03-.48 2.03-.42 2.05-.36 2.05-.31 2.07-.25 2.08-.2 2.08-.14 2.11-.08 2.11-.03h.92z"/><path id="g" d="m46.08 197.89 2.28.14 2.25.18 2.22.23 2.19.28 2.16.33 2.13.37 2.1.42 2.08.47 2.05.52 2.02.57 1.99.62 1.97.67 1.95.72 1.92.78 1.9.82 1.87.87 1.86.93 1.82.97 1.81 1.03 1.79 1.09 1.77 1.13 1.75 1.19.75.53.79.57.84.61.88.66.92.71.96.76.98.81 1.02.88 1.05.93 1.07 1.01 1.09 1.07 1.11 1.14 1.13 1.21 1.15 1.29 1.15 1.38 1.17 1.45 1.17 1.54 1.17 1.63 1.18 1.73 1.17 1.82 1.17 1.91 1.16 2.02 1.16 2.12 1.14 2.23 1.13 2.35 1.1 2.45 1.09 2.57 1.07 2.69 1.04 2.82 1.01 2.94.99 3.07.95 3.2.91 3.33.87 3.48.83 3.61.79 3.76.75 3.91.69 4.06.64 4.21.59 4.36-.33.06-.49.11-.67.16-.83.21-.98.26-1.14.29-1.28.31-1.42.35-1.55.36-1.68.37-1.81.38-1.92.38-2.03.38-2.14.37-2.24.35-2.33.32-2.42.3-2.51.27-2.58.23-2.66.18-2.72.13-2.78.07-2.83.02-2.89-.06-2.93-.13-2.96-.21-3-.3-3.03-.38-3.04-.49-3.06-.58-3.07-.7-3.08-.81-3.07-.93-3.07-1.06-3.05-1.18-3.03-1.33-3.01-1.47-2.98-1.62-2.94-1.77-2.9-1.93-.75-.53-.79-.57-.83-.61-.86-.66-.9-.7-.92-.77-.96-.81-.99-.88-1-.94-1.03-1-1.05-1.07-1.07-1.14-1.08-1.22-1.09-1.29-1.11-1.37-1.11-1.46-1.12-1.54-1.12-1.63-1.12-1.72-1.11-1.82-1.12-1.92-1.11-2.02-1.09-2.12-1.09-2.24-1.08-2.34-1.05-2.45-1.04-2.57-1.02-2.7-.99-2.81-.97-2.94-.95-3.07-.91-3.2-.88-3.34-.84-3.47-.8-3.62-.77-3.76-.72-3.91-.68-4.05-.64-4.21-.58-4.37 2.94-.65 2.91-.62 2.86-.57 2.82-.53 2.78-.49 2.74-.44 2.7-.4 2.66-.36 2.63-.32 2.59-.27 2.55-.23 2.52-.18 2.48-.14 2.45-.1 2.41-.04 2.38-.01 2.34.05z"/><path id="h" d="m40.92 56.83 2.77.93 2.72.96 2.66.97 2.6.99 2.55 1 2.5 1.03 2.45 1.04 2.39 1.07 2.34 1.08 2.28 1.11 2.23 1.13 2.19 1.15 2.12 1.17 2.08 1.19 2.03 1.22 1.97 1.24 1.93 1.27 1.87 1.29 1.82 1.32 1.78 1.35 1.72 1.37 1.67 1.4 1.63 1.42 1.57 1.45 1.53 1.49 1.48 1.51 1.43 1.54 1.38 1.57 1.34 1.61 1.28 1.63 1.24 1.67 1.2 1.7 1.15 1.73 1.1 1.76 1.05 1.8 1.01 1.83.96 1.87.92 1.91.39.83.4.89.43.95.43 1.01.44 1.07.45 1.14.44 1.2.45 1.27.43 1.33.43 1.4.41 1.48.39 1.54.37 1.62.35 1.69.31 1.77.28 1.84.25 1.92.2 2 .15 2.08.11 2.16.06 2.25-.01 2.33-.06 2.42-.13 2.5-.19 2.59-.27 2.68-.34 2.77-.42 2.87-.51 2.96-.59 3.05-.68 3.15-.78 3.25-.88 3.34-.98 3.45-1.08 3.55-1.2 3.65-1.31 3.75-1.43 3.86-1.55 3.97-1.67 4.07-2.88-.9-2.83-.93-2.77-.93-2.71-.96-2.66-.97-2.61-.99-2.55-1.01-2.5-1.03-2.44-1.04-2.39-1.07-2.34-1.08-2.29-1.11-2.23-1.13-2.18-1.15-2.13-1.17-2.08-1.2-2.02-1.21-1.98-1.25-1.92-1.27-1.88-1.29-1.82-1.32-1.77-1.34-1.72-1.37-1.68-1.4-1.62-1.42-1.58-1.46-1.52-1.48-1.48-1.51-1.43-1.54-1.39-1.58-1.33-1.6-1.29-1.63-1.24-1.67-1.19-1.7-1.15-1.73-1.1-1.76-1.06-1.8-1.01-1.84-.96-1.87-.92-1.9-.38-.83-.41-.89-.42-.95-.43-1.01-.45-1.07-.44-1.14-.45-1.2-.44-1.27-.44-1.33-.43-1.4-.41-1.48-.39-1.54-.37-1.62-.34-1.69-.32-1.76-.28-1.85-.24-1.92-.2-2-.16-2.08-.11-2.16-.05-2.24v-2.33l.06-2.42.13-2.5.19-2.59.27-2.68.34-2.78.42-2.86.51-2.96.59-3.05.69-3.15.77-3.25.88-3.34.98-3.45 1.09-3.54 1.19-3.65 1.31-3.76 1.43-3.86 1.55-3.97 1.67-4.07 2.89.9z"/></defs><use fill="#ff9f00" xlink:href="#a"/><use fill="none" xlink:href="#a"/><use fill="#ff9f00" xlink:href="#b"/><use fill="none" xlink:href="#b"/><use fill="#ff9f00" xlink:href="#c"/><use fill="none" xlink:href="#c"/><use fill="#ff9f00" xlink:href="#d"/><use fill="none" xlink:href="#d"/><use fill="#ff9f00" xlink:href="#e"/><use fill="none" xlink:href="#e"/><use fill="#ff9f00" xlink:href="#f"/><use fill="none" xlink:href="#f"/><use fill="#ff9f00" xlink:href="#g"/><use fill="none" xlink:href="#g"/><use fill="#ff9f00" xlink:href="#h"/><use fill="none" xlink:href="#h"/></svg>