<svg height="511pt" viewBox="0 -8 512 511" width="511pt" xmlns="http://www.w3.org/2000/svg"><path d="m510.78125 94.089844c-6.707031-49.046875-36.390625-83.335938-79.394531-91.722656-20.253907-3.949219-42.105469-1.582032-61.542969 6.664062-14.609375 6.199219-27.117188 15.234375-36.886719 26.539062 8.152344 10.109376 14.53125 22.148438 18.855469 35.785157.808594-.996094 1.550781-2.054688 2.199219-3.1875 13.164062-22.929688 42.792969-35.660157 70.441406-30.269531 16.15625 3.148437 44.191406 15.277343 50.460937 61.097656 3.117188 22.792968-2.175781 46.3125-15.734374 69.910156-11.480469 19.980469-28.804688 40.0625-51.496094 59.691406-29.515625 25.53125-60.570313 43.636719-74.757813 51.34375-14.074219-7.632812-44.734375-25.5-74.195312-50.875-22.84375-19.675781-40.292969-39.816406-51.867188-59.859375-13.683593-23.699219-19.035156-47.320312-15.90625-70.210937 2.210938-16.148438 7.128907-28.09375 13.269531-36.957032-1.492187 1.953126-2.863281 3.996094-4.085937 6.128907-4.328125 7.535156-12.402344 12.21875-21.078125 12.21875-7.378906 0-14.316406-3.398438-18.890625-9.050781-2.273437 7.164062-3.988281 14.757812-5.082031 22.753906-4.246094 31.035156 2.625 62.398437 20.421875 93.222656 13.613281 23.570312 33.660156 46.847656 59.589843 69.179688 31.496094 27.132812 63.765626 46.136718 79.734376 54.832031v94.808593h-26.964844c-10 0-18.101563 8.105469-18.101563 18.101563s8.101563 18.101563 18.101563 18.101563h26.964844v35.976562c0 9.996094 8.101562 18.101562 18.101562 18.101562 9.996094 0 18.097656-8.105468 18.097656-18.101562v-35.976562h26.964844c10 0 18.101562-8.105469 18.101562-18.101563s-8.105468-18.101563-18.101562-18.101563h-26.964844v-94.808593c15.96875-8.695313 48.238282-27.699219 79.734375-54.832031 25.929688-22.332032 45.976563-45.609376 59.589844-69.179688 17.796875-30.820312 24.667969-62.1875 20.421875-93.222656zm0 0" fill="#ff94d4"/><g fill="#ff73c6"><path d="m258.730469 229.066406c-22.84375-19.675781-40.292969-39.816406-51.867188-59.859375-13.6875-23.699219-19.035156-47.320312-15.90625-70.210937 2.207031-16.136719 7.121094-28.078125 13.257813-36.9375-1.488282 1.945312-2.851563 3.984375-4.074219 6.109375-4.328125 7.535156-12.402344 12.21875-21.078125 12.21875-.816406 0-1.625-.054688-2.429688-.136719-1.859374 5.523438-3.332031 11.734375-4.289062 18.746094-3.132812 22.890625 2.21875 46.511718 15.902344 70.210937 11.574218 20.042969 29.027344 40.183594 51.867187 59.859375 27.828125 23.972656 64.730469 46.214844 80.597657 55.039063 1.589843.882812 3.519531.863281 5.09375-.046875l7.132812-4.121094c-.003906 0-.007812.003906-.011719.003906-14.074219-7.632812-44.734375-25.5-74.195312-50.875zm0 0"/><path d="m332.421875 478.3125c0 6.589844-3.53125 12.339844-8.792969 15.503906 3.050782 1.835938 6.675782 2.820313 10.554688 2.554688 9.585937-.652344 16.855468-8.976563 16.855468-18.585938v-35.449218h-13.445312c-2.855469 0-5.171875 2.316406-5.171875 5.171874zm0 0"/><path d="m510.78125 94.089844c-6.707031-49.046875-36.390625-83.335938-79.394531-91.722656-9.421875-1.839844-19.183594-2.289063-28.890625-1.4375 3.457031.308593 6.886718.777343 10.273437 1.4375 43.007813 8.386718 72.6875 42.675781 79.398438 91.722656 4.242187 31.035156-2.628907 62.398437-20.425781 93.222656-13.609376 23.570312-33.660157 46.847656-59.585938 69.179688-29.839844 25.703124-60.371094 44.113281-77.078125 53.371093-1.640625.910157-2.65625 2.640625-2.65625 4.519531v86.578126c0 2.855468 2.316406 5.171874 5.171875 5.171874h13.445312v-94.808593c15.96875-8.695313 48.234376-27.699219 79.734376-54.832031 25.925781-22.335938 45.976562-45.609376 59.585937-69.183594 17.796875-30.816406 24.667969-62.183594 20.421875-93.21875zm0 0"/><path d="m378 406.132812h-18.613281c9.996093 0 18.101562 8.105469 18.101562 18.101563s-8.105469 18.101563-18.101562 18.101563h18.613281c10 0 18.101562-8.105469 18.101562-18.101563s-8.101562-18.101563-18.101562-18.101563zm0 0"/><path d="m345.464844 55.375c2.453125 5.042969 4.570312 10.378906 6.347656 15.980469.808594-.996094 1.550781-2.054688 2.199219-3.183594 9.652343-16.816406 28.160156-28.132813 48.242187-30.855469-20.867187-2.886718-42.398437 4.25-56.789062 18.058594zm0 0"/></g><path d="m356.910156 94.089844c-6.710937-49.046875-36.390625-83.335938-79.398437-91.722656-20.25-3.949219-42.105469-1.582032-61.542969 6.664062-14.617188 6.203125-27.132812 15.246094-36.90625 26.5625-9.769531-11.316406-22.289062-20.359375-36.90625-26.5625-19.4375-8.25-41.292969-10.617188-61.542969-6.664062-43.003906 8.386718-72.6875 42.675781-79.394531 91.722656-4.246094 31.035156 2.625 62.398437 20.421875 93.222656 13.613281 23.570312 33.660156 46.847656 59.589844 69.179688 31.496093 27.132812 63.765625 46.136718 79.730469 54.832031v94.808593h-26.964844c-9.996094 0-18.097656 8.105469-18.097656 18.101563s8.101562 18.101563 18.097656 18.101563h26.964844v35.976562c0 9.996094 8.105468 18.101562 18.101562 18.101562 10 0 18.101562-8.105468 18.101562-18.101562v-35.976562h26.964844c9.996094 0 18.101563-8.105469 18.101563-18.101563s-8.105469-18.101563-18.101563-18.101563h-26.964844v-94.808593c12.425782-6.765625 34.71875-19.773438 58.839844-37.996094-6.882812-5.199219-13.910156-10.808594-20.902344-16.835937-2.679687-2.304688-5.289062-4.625-7.84375-6.953126-20.117187 14.539063-38.285156 25.015626-48.203124 30.402344-14.074219-7.632812-44.738282-25.5-74.199219-50.875-22.839844-19.675781-40.289063-39.816406-51.863281-59.859375-13.6875-23.699219-19.039063-47.320312-15.90625-70.210937 6.269531-45.820313 34.304687-57.949219 50.457031-61.097656 4.257812-.828126 8.5625-1.230469 12.84375-1.230469 23.539062 0 46.460937 12.101562 57.601562 31.5v.003906c4.328125 7.53125 12.402344 12.214844 21.078125 12.214844 8.671875 0 16.746094-4.683594 21.074219-12.21875 13.164063-22.933594 42.792969-35.660157 70.441406-30.269531 16.15625 3.148437 44.191407 15.277343 50.460938 61.097656 3.117187 22.792968-2.175781 46.3125-15.730469 69.910156-11.109375 19.328125-27.703125 38.753906-49.316406 57.769531.90625.796875 1.8125 1.59375 2.734375 2.386719 8.71875 7.511719 17.535156 14.351562 26.003906 20.472656 22.152344-20.195312 39.546875-41.089844 51.753906-62.226562 17.796875-30.816406 24.667969-62.183594 20.421875-93.21875zm0 0" fill="#ffe55a"/><g fill="#ffd500"><path d="m181.523438 68.171875c-2.710938 4.71875-6.890626 8.316406-11.769532 10.347656 2.910156 1.214844 6.066406 1.867188 9.308594 1.867188 8.675781 0 16.75-4.679688 21.074219-12.214844 9.65625-16.816406 28.160156-28.132813 48.242187-30.855469-26.585937-3.679687-54.257812 8.910156-66.855468 30.855469zm0 0"/><path d="m178.546875 478.3125c0 6.589844-3.53125 12.339844-8.792969 15.503906 3.054688 1.835938 6.675782 2.820313 10.558594 2.554688 9.585938-.652344 16.851562-8.976563 16.851562-18.585938v-35.449218h-13.445312c-2.855469 0-5.171875 2.316406-5.171875 5.171874zm0 0"/><path d="m224.128906 406.132812h-18.617187c9.996093 0 18.101562 8.105469 18.101562 18.101563s-8.105469 18.101563-18.101562 18.101563h18.617187c9.996094 0 18.101563-8.105469 18.101563-18.101563s-8.105469-18.101563-18.101563-18.101563zm0 0"/><path d="m246.691406 266.101562c-25.921875 20.707032-50.941406 35.703126-65.488281 43.765626-1.640625.910156-2.65625 2.636718-2.65625 4.515624v86.578126c0 2.859374 2.316406 5.171874 5.171875 5.171874h13.445312v-94.808593c12.425782-6.765625 34.71875-19.773438 58.839844-37.996094-3.082031-2.328125-6.1875-4.730469-9.3125-7.226563zm0 0"/><path d="m356.910156 94.089844c-6.710937-49.046875-36.390625-83.335938-79.398437-91.722656-9.417969-1.839844-19.183594-2.289063-28.890625-1.4375 3.457031.308593 6.890625.777343 10.277344 1.4375 43.003906 8.386718 72.6875 42.675781 79.394531 91.722656 4.246093 31.035156-2.625 62.398437-20.421875 93.222656-10.652344 18.441406-25.257813 36.703125-43.523438 54.472656 3.5 2.703125 6.96875 5.28125 10.382813 7.753906 22.15625-20.195312 39.550781-41.09375 51.757812-62.226562 17.796875-30.820312 24.667969-62.1875 20.421875-93.222656zm0 0"/><path d="m104.855469 229.066406c-22.839844-19.675781-40.289063-39.816406-51.863281-59.859375-13.6875-23.699219-19.039063-47.320312-15.90625-70.210937 6.269531-45.820313 34.304687-57.945313 50.457031-61.097656 1.195312-.230469 2.394531-.421876 3.589843-.585938-3.089843-.421875-6.21875-.644531-9.359374-.644531-4.285157 0-8.585938.402343-12.847657 1.230469-16.152343 3.152343-44.1875 15.277343-50.457031 61.097656-3.128906 22.890625 2.222656 46.511718 15.90625 70.210937 11.574219 20.042969 29.023438 40.183594 51.867188 59.859375 27.828124 23.972656 64.730468 46.214844 80.597656 55.039063 1.589844.882812 3.519531.863281 5.089844-.046875l7.132812-4.121094c-.003906 0-.007812.003906-.007812.003906-14.074219-7.632812-44.738282-25.5-74.199219-50.875zm0 0"/><path d="m142.15625 9.035156c-16.1875-6.871094-34.050781-9.644531-51.265625-8.105468 11.164063.980468 22.253906 3.691406 32.648437 8.105468 13.242188 5.617188 30.09375 17.382813 42.503907 31.683594 1.992187 2.296875 5.550781 2.371094 7.628906.152344 1.726563-1.847656 3.523437-3.640625 5.390625-5.277344-9.773438-11.316406-22.289062-20.355469-36.90625-26.558594zm0 0"/></g></svg>