<svg xmlns="http://www.w3.org/2000/svg" id="Layer_3" data-name="Layer 3" viewBox="0 0 64 64" width="512" height="512"><path d="M24,62h0A47.5,47.5,0,0,0,46,21.923V15h0A25.11,25.11,0,0,1,24.646,3.049L24,2l-.646,1.049A25.11,25.11,0,0,1,2,15H2v6.923A47.5,47.5,0,0,0,24,62Z" fill="#aa2b24"/><path d="M24.646,3.049,24,2l-.646,1.049A25.11,25.11,0,0,1,2,15v6.923A47.474,47.474,0,0,0,9.819,48H31a4,4,0,0,0,4-4V12.441A25.1,25.1,0,0,1,24.646,3.049Z" fill="#d24034"/><path d="M3,15.98v5.943A46.283,46.283,0,0,0,24,60.81,46.283,46.283,0,0,0,45,21.923V15.98A25.924,25.924,0,0,1,24,3.9,25.924,25.924,0,0,1,3,15.98ZM24,63a1,1,0,0,1-.537-.156A48.277,48.277,0,0,1,1,21.923V15a1,1,0,0,1,1-1A23.956,23.956,0,0,0,22.5,2.525l.645-1.049a1.039,1.039,0,0,1,1.7,0L25.5,2.525A23.956,23.956,0,0,0,46,14a1,1,0,0,1,1,1v6.923A48.277,48.277,0,0,1,24.537,62.844,1,1,0,0,1,24,63Z" fill="#939393"/><circle cx="49" cy="15" r="13" fill="#559b38"/><circle cx="49" cy="15" r="9" fill="#ccc"/><path d="M49,6a8.985,8.985,0,0,0-8.053,13H51a3,3,0,0,0,3-3V7.518A8.952,8.952,0,0,0,49,6Z" fill="#f2f2f2"/><rect x="15" y="16" width="18" height="34" rx="9" fill="#ccc"/><path d="M24,16a9,9,0,0,0-9,9V41a8.938,8.938,0,0,0,.947,4H26a4,4,0,0,0,4-4V18.305A8.955,8.955,0,0,0,24,16Z" fill="#f2f2f2"/><circle cx="24" cy="25" r="5" fill="#fde5c1"/><path d="M31.22,44a23.9,23.9,0,0,1-15.513-5.707L15,37.586v2.682A25.923,25.923,0,0,0,31.22,46h.262a8.955,8.955,0,0,0,.995-2Z" fill="#c2c2c2"/><path d="M15,31.992v2.3l.958.547A30.622,30.622,0,0,0,33,40h0V38h0a28.707,28.707,0,0,1-4.946-.445A17.189,17.189,0,0,0,33,32.805V28.758l-1.087,2.11a15.06,15.06,0,0,1-6.843,6,28.947,28.947,0,0,1-8.061-3.732Z" fill="#c2c2c2"/><path d="M47,20a1,1,0,0,1-.707-.293l-3-3,1.414-1.414L47,17.586l6.293-6.293,1.414,1.414-7,7A1,1,0,0,1,47,20Z" fill="#559b38"/></svg>