<?xml version="1.0" encoding="UTF-8" standalone="no"?>
<!-- Created with Inkscape (http://www.inkscape.org/) -->

<svg
   version="1.1"
   id="svg2"
   width="241.49771"
   height="401.97177"
   viewBox="0 0 241.49771 401.97177"
   sodipodi:docname="Diamond_ring_black.svg"
   inkscape:version="1.2 (dc2aedaf03, 2022-05-15)"
   xmlns:inkscape="http://www.inkscape.org/namespaces/inkscape"
   xmlns:sodipodi="http://sodipodi.sourceforge.net/DTD/sodipodi-0.dtd"
   xmlns="http://www.w3.org/2000/svg"
   xmlns:svg="http://www.w3.org/2000/svg"
   xmlns:rdf="http://www.w3.org/1999/02/22-rdf-syntax-ns#"
   xmlns:cc="http://creativecommons.org/ns#"
   xmlns:dc="http://purl.org/dc/elements/1.1/">
  <title
     id="title282">Diamond Ring</title>
  <defs
     id="defs6" />
  <sodipodi:namedview
     id="namedview4"
     pagecolor="#ffffff"
     bordercolor="#000000"
     borderopacity="0.25"
     inkscape:showpageshadow="2"
     inkscape:pageopacity="0.0"
     inkscape:pagecheckerboard="0"
     inkscape:deskcolor="#d1d1d1"
     showgrid="false"
     inkscape:zoom="1.23"
     inkscape:cx="184.55285"
     inkscape:cy="305.69106"
     inkscape:window-width="1920"
     inkscape:window-height="1017"
     inkscape:window-x="-8"
     inkscape:window-y="-8"
     inkscape:window-maximized="1"
     inkscape:current-layer="g8" />
  <g
     inkscape:groupmode="layer"
     inkscape:label="Image"
     id="g8"
     transform="translate(-145.46896,-112.09964)">
    <path
       style="fill:#ff0000"
       d="M 284.10226,141.75 269.89,123 l 17.25382,-5.68614 c 9.4896,-3.12738 17.61304,-5.46413 18.05209,-5.19278 0.43905,0.27135 5.71735,6.98283 11.72956,14.9144 l 10.93129,14.42104 -13.92757,9.52174 c -7.66017,5.23696 -14.30717,9.52174 -14.77112,9.52174 -0.46395,0 -7.23906,-8.4375 -15.05581,-18.75 z"
       id="path463"
       inkscape:label="path463"
       inkscape:export-filename="..\Documents\CitizenOfRomeDynastyAscendant\mods\play_scenario\scenarios\marcus_vipsanius_agrippa\diamond_ring.svg"
       inkscape:export-xdpi="96"
       inkscape:export-ydpi="96" />
    <path
       style="fill:#ff0000"
       d="m 372.14343,257.50262 -14.35657,-18.98205 0.69182,-7.65481 c 0.3805,-4.21015 0.82961,-8.37728 0.99801,-9.26029 0.16841,-0.88301 0.60524,-4.98047 0.97075,-9.10547 0.95273,-10.75211 2.47737,-23.25815 2.88519,-23.66596 0.19195,-0.19195 5.37063,6.26885 11.50819,14.35734 L 386,217.89773 l 0.0436,9.05114 c 0.024,4.97812 0.29932,18.16363 0.61186,29.30113 0.31254,11.1375 0.40541,20.24655 0.20639,20.24234 -0.19903,-0.004 -6.82232,-8.54958 -14.71843,-18.98972 z"
       id="path591" />
    <path
       style="fill:#ff0000"
       d="m 286.88158,284.75167 c -0.20492,-1.30074 -0.005,-2.68058 3.08479,-21.25167 1.05221,-6.325 2.16522,-13.1875 2.47337,-15.25 0.30814,-2.0625 0.81156,-5.4375 1.11871,-7.5 0.30714,-2.0625 1.63816,-10.05 2.95781,-17.75 1.31965,-7.7 2.66588,-16.025 2.99162,-18.5 1.12761,-8.56768 2.73801,-17.50506 3.3637,-18.66782 0.64104,-1.19128 39.62842,49.23675 39.62842,51.25718 0,0.97907 -7.3832,7.6134 -21.04522,18.91064 -2.66051,2.2 -11.50123,9.73825 -19.64604,16.75166 -8.1448,7.01342 -14.86203,12.41342 -14.92716,12.00001 z"
       id="path593" />
    <path
       style="fill:#800000"
       d="m 328.5,200.10673 c -10.45,-13.77671 -19,-25.38564 -19,-25.79761 0,-0.55217 18.72309,-13.68091 27.64661,-19.38596 0.35564,-0.22737 4.13121,4.13259 8.39015,9.68881 l 7.74353,10.10221 -1.26171,13.64291 c -0.69393,7.5036 -1.39364,14.36537 -1.55489,15.24838 -0.16125,0.88301 -0.60849,5.0942 -0.99386,9.35819 -1.27499,14.10751 0.14274,14.97675 -20.96983,-12.85693 z"
       id="path664" />
    <path
       style="fill:#ffcc00"
       d="M 284.5,512.92452 C 239.53703,504.15034 195.09202,457.9956 168.52879,392.49209 151.85444,351.37403 144.62275,314.08749 145.54734,274 c 0.41575,-18.02531 0.65345,-20.22893 3.99122,-37 3.05414,-15.34599 5.4783,-22.6652 11.51419,-34.76452 5.98856,-12.00444 9.7029,-17.52464 16.88663,-25.09665 21.52782,-22.6914 49.58212,-27.95345 83.50909,-13.25799 53.62501,38.68251 4.85216,51.93906 -0.16844,22.51417 -34.42127,-16.17806 -67.77627,-7.6048 -87.50957,24.86486 C 160.87195,232.4834 155,257.26574 155,290.47989 155,340.88117 170.7969,393.326 198.83209,436 c 11.66489,17.75582 31.9705,39.17423 46.1705,48.70077 7.54867,5.06427 19.56846,11.28197 23.92937,12.37838 0.86242,0.21683 3.81804,1.01469 6.56804,1.77302 11.99793,3.3085 29.43126,2.38518 39.21344,-2.07686 11.37025,-5.18642 22.05147,-14.48285 29.0403,-25.27531 1.95888,-3.025 4.32969,-6.63681 5.26845,-8.02625 4.79912,-7.10306 12.70963,-31.7356 14.4429,-44.97375 3.31937,-25.35223 2.28644,-51.79848 -3.08554,-79 -45.38092,-34.5517 -20.41476,-103.49691 3.964,-40.33813 10.06085,31.14832 14.65522,59.58452 14.67649,90.8381 0.0177,26.01389 -2.08468,40.7921 -8.82027,62 -1.98294,6.24356 -10.71507,25.51558 -11.98864,26.45922 -0.40142,0.29743 -1.91046,2.34078 -3.35344,4.54078 -6.10574,9.309 -16.5471,18.73939 -26.46324,23.90099 -12.35153,6.42927 -29.65038,8.80315 -43.89445,6.02353 z"
       id="path1373"
       sodipodi:nodetypes="ssssssccssssssssssccsssssss" />
    <path
       style="fill:#800000;stroke-width:0.813008"
       d="m 302.43902,292.41974 c 0,-0.42312 0.82318,-1.31799 1.82927,-1.98859 1.0061,-0.67059 2.74391,-2.02492 3.86179,-3.00962 1.11789,-0.98469 3.67886,-3.19023 5.69106,-4.9012 2.01219,-1.71097 4.44506,-3.78287 5.40638,-4.60421 0.96131,-0.82135 3.49498,-2.95677 5.63037,-4.74539 2.13538,-1.78862 4.69809,-3.98374 5.69489,-4.87805 0.99681,-0.89431 3.40217,-2.96029 5.34525,-4.59108 1.94307,-1.63079 6.40858,-5.39783 9.92334,-8.3712 3.51476,-2.97337 6.69685,-5.29763 7.0713,-5.16501 0.60049,0.21266 27.59513,35.22405 27.59513,35.79021 0,0.12279 -0.82317,0.25013 -1.82926,0.28297 -6.97704,0.22772 -17.32342,1.44887 -17.55345,2.07178 -0.15236,0.41258 -2.16455,-2.07258 -4.47154,-5.52259 -3.27531,-4.89809 -5.04983,-6.71243 -8.09742,-8.27911 -3.78562,-1.94609 -3.98868,-1.96547 -6.75788,-0.64493 -3.24577,1.5478 -5.69112,6.13313 -6.52836,12.24147 -0.28136,2.05271 -0.73622,3.7602 -1.0108,3.79441 -0.27459,0.0342 -1.04803,0.17071 -1.71876,0.30332 -0.67074,0.13261 -4.32927,0.48833 -8.13009,0.79049 -9.50876,0.75595 -14.43805,1.22173 -18.49593,1.74775 -1.94626,0.25229 -3.45529,0.11192 -3.45529,-0.32142 z"
       id="path510" />
    <path
       style="fill:#800000;stroke-width:0.813008"
       d="m 277.32507,248.57724 c -0.55823,-6.14838 -1.16222,-12.27643 -1.34221,-13.61789 -0.31541,-2.35071 -1.66157,-15.16792 -2.47626,-23.57724 -0.2166,-2.23577 -0.56554,-5.17546 -0.77542,-6.53264 l -0.3816,-2.46761 4.86179,0.0286 c 4.24982,0.025 5.14577,-0.25531 7.11789,-2.22679 5.8676,-5.86568 -0.0896,-18.63039 -13.9386,-29.8667 -2.93859,-2.38421 -5.1704,-4.5074 -4.95959,-4.71821 0.21081,-0.21081 0.90834,0.0525 1.55007,0.58505 1.55775,1.29281 2.38542,-0.0888 1.79256,-2.99224 -0.55803,-2.73287 -2.97153,-27.24078 -2.70575,-27.47558 0.10572,-0.0934 6.21758,7.74694 13.58191,17.42296 8.43896,11.08797 13.42521,18.34429 13.48573,19.6253 0.0528,1.11788 -0.17815,3.31301 -0.51324,4.87805 -0.3351,1.56504 -0.80733,4.30894 -1.0494,6.09756 -0.35939,2.65542 -2.65318,16.65899 -4.1826,25.53471 -0.18552,1.07662 -0.58099,3.63759 -0.87883,5.69106 -0.29785,2.05346 -0.65009,4.34073 -0.78276,5.0828 -0.13267,0.74208 -0.52509,3.12013 -0.87204,5.28456 -0.34695,2.16443 -0.67078,4.11825 -0.71964,4.34183 -0.0489,0.22357 -0.38394,2.4187 -0.74465,4.87805 -0.36071,2.45935 -0.79609,5.20325 -0.96752,6.09756 -0.17143,0.89431 -0.93633,5.55894 -1.69979,10.36585 -0.76345,4.80691 -1.61242,8.73984 -1.88659,8.73984 -0.27418,0 -0.95524,-5.03049 -1.51346,-11.17886 z"
       id="path512" />
  </g>
  <metadata
     id="metadata280">
    <rdf:RDF>
      <cc:Work
         rdf:about="">
        <dc:creator>
          <cc:Agent>
            <dc:title>Swastik Pal</dc:title>
          </cc:Agent>
        </dc:creator>
        <dc:title>Diamond Ring</dc:title>
        <dc:date>11/07/2022</dc:date>
        <dc:subject>
          <rdf:Bag>
            <rdf:li>Shiny</rdf:li>
            <rdf:li>Ring</rdf:li>
            <rdf:li>Precious</rdf:li>
          </rdf:Bag>
        </dc:subject>
      </cc:Work>
    </rdf:RDF>
  </metadata>
</svg>
