<?xml version="1.0" encoding="UTF-8"?>
<!-- Created with Inkscape (http://www.inkscape.org/) -->
<svg width="250" height="350" version="1.1" viewBox="0 0 250 350" xmlns="http://www.w3.org/2000/svg" xmlns:cc="http://creativecommons.org/ns#" xmlns:dc="http://purl.org/dc/elements/1.1/" xmlns:rdf="http://www.w3.org/1999/02/22-rdf-syntax-ns#">
 <title>Diamond Ring</title>
 <g transform="translate(-145.47 -112.1)">
  <g fill="#f00" stroke-width=".9494">
   <path d="m288.98 137.92-14.713-16.326 17.861-4.951c9.8237-2.723 18.233-4.7577 18.688-4.5214 0.45451 0.23626 5.9186 6.08 12.143 12.986l11.316 12.557-14.418 8.2906c-7.9299 4.5599-14.811 8.2906-15.291 8.2906s-7.4939-7.3466-15.586-16.326z"/>
   <path d="m380.12 238.7-14.862-16.528 0.71618-6.6651c0.3939-3.6658 0.85882-7.2942 1.0332-8.063s0.62654-4.3365 1.0049-7.9282c0.98627-9.3619 2.5646-20.251 2.9868-20.606 0.19871-0.16714 5.5597 5.4583 11.913 12.501l11.552 12.805 0.0451 7.8809c0.0249 4.3345 0.30986 15.815 0.6334 25.513 0.32355 9.6975 0.41969 17.629 0.21366 17.625-0.20604-3e-3 -7.0625-7.4442-15.237-16.534z"/>
   <path d="m291.86 262.43c-0.21214-1.1326-5e-3 -2.334 3.1934-18.504 1.0893-5.5072 2.2414-11.482 2.5604-13.278 0.31899-1.7958 0.84013-4.7345 1.1581-6.5303 0.31795-1.7958 1.6958-8.7506 3.0619-15.455 1.3661-6.7045 2.7597-13.953 3.097-16.108 1.1673-7.46 2.8344-15.242 3.4821-16.254 0.66361-1.0372 41.024 42.871 41.024 44.63 0 0.85248-7.6431 6.629-21.786 16.466-2.7542 1.9156-11.906 8.4792-20.338 14.586-8.4316 6.1066-15.385 10.808-15.453 10.449z"/>
  </g>
  <path d="m334.94 188.73c-10.818-11.995-19.669-22.103-19.669-22.462 0-0.48078 19.382-11.912 28.62-16.88 0.36816-0.19797 4.2767 3.5983 8.6855 8.4361l8.0162 8.7961-1.3061 11.879c-0.71836 6.5334-1.4427 12.508-1.6096 13.277-0.16693 0.76884-0.62991 4.4356-1.0288 8.1482-1.3199 12.284 0.14776 13.04-21.708-11.195z" fill="#800000" stroke-width=".9494"/>
  <path d="m289.39 461.1c-46.546-7.6398-92.556-47.827-120.05-104.86-17.261-35.802-24.748-68.268-23.791-103.17 0.43039-15.695 0.67645-17.613 4.1317-32.216 3.1617-13.362 5.6712-19.735 11.92-30.27 6.1994-10.452 10.044-15.259 17.481-21.852 22.286-19.758 51.328-24.339 86.449-11.544 55.513 33.681 5.023 45.224-0.17437 19.603-35.633-14.086-70.162-6.6216-90.59 21.65-13.353 18.479-19.431 40.058-19.431 68.977 0 43.885 16.353 89.549 45.375 126.71 12.076 15.46 33.096 34.109 47.796 42.404 7.8144 4.4095 20.257 9.8233 24.772 10.778 0.89278 0.1888 3.9525 0.8835 6.7993 1.5438 12.42 2.8807 30.467 2.0768 40.594-1.8083 11.771-4.5159 22.828-12.61 30.063-22.007 2.0278-2.6339 4.4821-5.7787 5.4539-6.9885 4.9681-6.1847 13.157-27.632 14.951-39.159 3.4362-22.074 2.3669-45.101-3.1942-68.786-46.979-30.084-21.133-90.116 4.1036-35.123 10.415 27.121 15.171 51.881 15.193 79.093 0.0183 22.65-2.1581 35.518-9.1308 53.984-2.0528 5.4363-11.092 22.217-12.411 23.038-0.41555 0.25897-1.9777 2.0381-3.4715 3.9537-6.3207 8.1054-17.13 16.317-27.395 20.811-12.786 5.598-30.694 7.665-45.44 5.2447z" fill="#fc0" stroke-width=".9494"/>
  <path d="m307.97 269.11c0-0.36842 0.85216-1.1476 1.8937-1.7315 1.0415-0.58389 2.8405-1.7631 3.9978-2.6205 1.1572-0.85738 3.8084-2.7778 5.8914-4.2675 2.083-1.4898 4.6016-3.2938 5.5967-4.0089 0.99516-0.71517 3.618-2.5745 5.8286-4.1319 2.2106-1.5574 4.8635-3.4687 5.8954-4.2474 1.0319-0.77869 3.522-2.5776 5.5334-3.9975s6.6342-4.6999 10.273-7.2889c3.6385-2.5889 6.9326-4.6127 7.3203-4.4972 0.62163 0.18517 28.567 30.67 28.567 31.163 0 0.10691-0.85215 0.21779-1.8937 0.24638-7.2227 0.19828-17.933 1.2616-18.171 1.8039-0.15773 0.35924-2.2408-1.8046-4.629-4.8086-3.3906-4.2648-5.2276-5.8446-8.3825-7.2087-3.9189-1.6945-4.1291-1.7114-6.9958-0.56155-3.36 1.3477-5.8915 5.3402-6.7582 10.659-0.29127 1.7873-0.76214 3.274-1.0464 3.3038-0.28426 0.0298-1.0849 0.14864-1.7793 0.2641-0.69436 0.11547-4.4817 0.4252-8.4163 0.68829-9.8435 0.65821-14.946 1.0638-19.147 1.5218-2.0148 0.21967-3.5769 0.0974-3.5769-0.27986z" fill="#800000" stroke-width=".77187"/>
  <path d="m281.97 230.93c-0.57789-5.3534-1.2031-10.689-1.3895-11.857-0.32651-2.0468-1.7201-13.207-2.5634-20.529-0.22422-1.9467-0.58545-4.5063-0.80272-5.688l-0.39503-2.1486 5.033 0.0249c4.3994 0.0218 5.3269-0.2223 7.3685-1.9389 6.0742-5.1073-0.0927-16.222-14.429-26.005-3.042-2.076-5.3524-3.9246-5.1342-4.1082 0.21823-0.18356 0.94032 0.0457 1.6046 0.5094 1.6126 1.1257 2.4694-0.0773 1.8557-2.6054-0.57767-2.3795-3.0761-23.719-2.801-23.923 0.10945-0.0813 6.4365 6.7453 14.06 15.17 8.7361 9.6544 13.898 15.973 13.961 17.088 0.0547 0.97335-0.18442 2.8847-0.53131 4.2474-0.3469 1.3627-0.83575 3.7518-1.0863 5.3092-0.37205 2.3121-2.7466 14.505-4.3299 22.233-0.19205 0.93742-0.60144 3.1673-0.90977 4.9552-0.30834 1.788-0.67298 3.7795-0.81032 4.4256-0.13734 0.64614-0.54357 2.7167-0.90274 4.6013-0.35916 1.8846-0.6944 3.5858-0.74498 3.7805-0.0506 0.19467-0.39745 2.106-0.77086 4.2474-0.37341 2.1414-0.82412 4.5305-1.0016 5.3092-0.17746 0.77868-0.96929 4.8402-1.7596 9.0256-0.79033 4.1854-1.6692 7.6098-1.953 7.6098-0.28383 0-0.98887-4.3801-1.5667-9.7335z" fill="#800000" stroke-width=".77187"/>
 </g>
 <metadata>
  <rdf:RDF>
   <cc:Work rdf:about="">
    <dc:creator>
     <cc:Agent>
      <dc:title>Swastik Pal</dc:title>
     </cc:Agent>
    </dc:creator>
    <dc:title>Diamond Ring</dc:title>
    <dc:date>11/07/2022</dc:date>
    <dc:subject>
     <rdf:Bag>
      <rdf:li>Shiny</rdf:li>
      <rdf:li>Ring</rdf:li>
      <rdf:li>Precious</rdf:li>
     </rdf:Bag>
    </dc:subject>
   </cc:Work>
  </rdf:RDF>
 </metadata>
</svg>
