<?xml version="1.0" encoding="UTF-8" standalone="no"?>
<!-- Created with Inkscape (http://www.inkscape.org/) -->

<svg
   version="1.1"
   id="svg2"
   width="249.99995"
   height="350"
   viewBox="0 0 249.99995 350"
   sodipodi:docname="ruby_ring_resized.svg"
   inkscape:version="1.2 (dc2aedaf03, 2022-05-15)"
   xmlns:inkscape="http://www.inkscape.org/namespaces/inkscape"
   xmlns:sodipodi="http://sodipodi.sourceforge.net/DTD/sodipodi-0.dtd"
   xmlns="http://www.w3.org/2000/svg"
   xmlns:svg="http://www.w3.org/2000/svg"
   xmlns:rdf="http://www.w3.org/1999/02/22-rdf-syntax-ns#"
   xmlns:cc="http://creativecommons.org/ns#"
   xmlns:dc="http://purl.org/dc/elements/1.1/">
  <title
     id="title282">Diamond Ring</title>
  <defs
     id="defs6" />
  <sodipodi:namedview
     id="namedview4"
     pagecolor="#ffffff"
     bordercolor="#000000"
     borderopacity="0.25"
     inkscape:showpageshadow="2"
     inkscape:pageopacity="0.0"
     inkscape:pagecheckerboard="0"
     inkscape:deskcolor="#d1d1d1"
     showgrid="false"
     inkscape:zoom="1.23"
     inkscape:cx="184.55285"
     inkscape:cy="306.50407"
     inkscape:window-width="1920"
     inkscape:window-height="1017"
     inkscape:window-x="-8"
     inkscape:window-y="-8"
     inkscape:window-maximized="1"
     inkscape:current-layer="g8" />
  <g
     inkscape:groupmode="layer"
     inkscape:label="Ruby ring"
     id="g8"
     transform="translate(-145.46897,-112.09964)">
    <path
       style="fill:#ff0000;stroke-width:0.9494"
       d="m 288.98305,137.91645 -14.71262,-16.32578 17.86126,-4.95097 c 9.8237,-2.72303 18.23313,-4.75766 18.68764,-4.52139 0.45451,0.23626 5.91864,6.08 12.14252,12.98609 l 11.31614,12.55651 -14.41791,8.29065 c -7.92986,4.55986 -14.81088,8.29065 -15.29116,8.29065 -0.48028,0 -7.49392,-7.34659 -15.58587,-16.32576 z"
       id="path463"
       inkscape:label="upper left"
       inkscape:export-filename="..\Documents\CitizenOfRomeDynastyAscendant\mods\play_scenario\scenarios\marcus_vipsanius_agrippa\diamond_ring.svg"
       inkscape:export-xdpi="96"
       inkscape:export-ydpi="96" />
    <path
       style="fill:#ff0000;stroke-width:0.9494"
       d="m 380.12384,238.70315 -14.86202,-16.52782 0.71618,-6.6651 c 0.3939,-3.66581 0.85882,-7.29416 1.03315,-8.063 0.17433,-0.76884 0.62654,-4.33654 1.00492,-7.92821 0.98627,-9.36194 2.56459,-20.25105 2.98677,-20.60613 0.19871,-0.16714 5.55971,5.45833 11.91335,12.50105 l 11.55206,12.80492 0.0451,7.88091 c 0.0249,4.33448 0.30986,15.81521 0.6334,25.51272 0.32355,9.69751 0.41969,17.62883 0.21366,17.62516 -0.20604,-0.003 -7.06251,-7.44418 -15.23661,-16.5345 z"
       id="path591"
       inkscape:label="upper right" />
    <path
       style="fill:#ff0000;stroke-width:0.9494"
       d="m 291.86022,262.42912 c -0.21214,-1.13256 -0.005,-2.334 3.19339,-18.504 1.08926,-5.50723 2.24145,-11.48246 2.56045,-13.27829 0.31899,-1.79584 0.84013,-4.73447 1.1581,-6.53031 0.31795,-1.79583 1.69583,-8.75062 3.06194,-15.45506 1.36611,-6.70446 2.75974,-13.9531 3.09695,-16.1081 1.16731,-7.45995 2.8344,-15.24179 3.48212,-16.25422 0.66361,-1.03725 41.0236,42.87082 41.0236,44.63003 0,0.85248 -7.64314,6.62905 -21.78615,16.46564 -2.75418,1.91557 -11.90615,8.47918 -20.33771,14.5858 -8.43155,6.10665 -15.38527,10.80847 -15.45269,10.44851 z"
       id="path593"
       inkscape:label="lower mid" />
    <path
       style="fill:#800000;stroke-width:0.9494"
       d="m 334.94388,188.72811 c -10.81791,-11.99549 -19.66893,-22.10348 -19.66893,-22.46219 0,-0.48078 19.38227,-11.91208 28.61995,-16.87951 0.36816,-0.19797 4.27666,3.59828 8.68554,8.43613 l 8.01615,8.79607 -1.30613,11.87899 c -0.71836,6.53344 -1.4427,12.50804 -1.60963,13.27689 -0.16693,0.76884 -0.62991,4.43556 -1.02885,8.14824 -1.31988,12.28353 0.14776,13.04038 -21.7081,-11.19462 z"
       id="path664"
       inkscape:label="upper mid" />
    <path
       style="fill:#ffcc00;stroke-width:0.9494"
       d="m 289.39479,461.10101 c -46.54596,-7.63975 -92.55572,-47.82704 -120.05415,-104.86147 -17.26139,-35.80181 -24.74768,-68.2675 -23.79054,-103.17199 0.43039,-15.69478 0.67645,-17.61349 4.13174,-32.21619 3.16166,-13.36187 5.67117,-19.73477 11.91956,-30.26973 6.1994,-10.45237 10.0445,-15.25885 17.48115,-21.85186 22.28574,-19.75758 51.32773,-24.33928 86.44915,-11.54383 55.51296,33.68117 5.02299,45.22374 -0.17437,19.60326 -35.63312,-14.08636 -70.16243,-6.62156 -90.59047,21.65003 -13.35263,18.47949 -19.43131,40.05767 -19.43131,68.97749 0,43.8848 16.35306,89.54892 45.37527,126.70551 12.07557,15.46013 33.09607,34.10931 47.796,42.40414 7.81443,4.4095 20.25739,9.8233 24.77184,10.77795 0.89278,0.1888 3.95246,0.8835 6.79927,1.54379 12.42034,2.88073 30.46743,2.07679 40.59401,-1.80834 11.77056,-4.51586 22.82782,-12.61033 30.06271,-22.00742 2.02784,-2.63389 4.48212,-5.77872 5.45393,-6.98851 4.96808,-6.18469 13.15709,-27.63244 14.95138,-39.159 3.43624,-22.07439 2.36694,-45.10134 -3.19417,-68.78592 -46.97862,-30.08444 -21.13349,-90.11558 4.10356,-35.12272 10.41506,27.12108 15.17118,51.88071 15.1932,79.09344 0.0183,22.6505 -2.15808,35.518 -9.1308,53.98388 -2.05275,5.43633 -11.09231,22.21662 -12.41072,23.03826 -0.41555,0.25897 -1.97772,2.03813 -3.4715,3.95369 -6.3207,8.10542 -17.12967,16.31653 -27.39492,20.81078 -12.78638,5.59802 -30.69427,7.66497 -45.43982,5.24474 z"
       id="path1373"
       sodipodi:nodetypes="ssssssccssssssssssccsssssss"
       inkscape:label="ring" />
    <path
       style="fill:#800000;stroke-width:0.771871"
       d="m 307.96538,269.10577 c 0,-0.36842 0.85216,-1.14759 1.89367,-1.73148 1.04152,-0.58389 2.84052,-1.76312 3.99775,-2.6205 1.15725,-0.85738 3.80838,-2.77776 5.89143,-4.26751 2.08303,-1.48976 4.60155,-3.29378 5.59671,-4.00892 0.99516,-0.71517 3.61803,-2.57449 5.8286,-4.13186 2.21056,-1.55736 4.86349,-3.46867 5.89539,-4.24735 1.0319,-0.77869 3.52195,-2.57755 5.53343,-3.99749 2.01148,-1.41994 6.63421,-4.69993 10.27271,-7.28888 3.6385,-2.58893 6.93262,-4.61268 7.32026,-4.49721 0.62163,0.18517 28.56665,30.66986 28.56665,31.16282 0,0.10691 -0.85215,0.21779 -1.89366,0.24638 -7.22268,0.19828 -17.93332,1.26155 -18.17144,1.80392 -0.15773,0.35924 -2.24076,-1.80461 -4.62897,-4.80856 -3.39062,-4.2648 -5.22762,-5.84457 -8.3825,-7.20869 -3.9189,-1.69448 -4.12911,-1.71135 -6.9958,-0.56155 -3.36005,1.34768 -5.89149,5.34017 -6.7582,10.65875 -0.29127,1.78731 -0.76214,3.27403 -1.04639,3.30382 -0.28426,0.0298 -1.08493,0.14864 -1.77927,0.2641 -0.69436,0.11547 -4.48169,0.4252 -8.41632,0.68829 -9.84353,0.65821 -14.94637,1.06377 -19.14711,1.52178 -2.01478,0.21967 -3.57694,0.0974 -3.57694,-0.27986 z"
       id="path510"
       inkscape:label="lower right" />
    <path
       style="fill:#800000;stroke-width:0.771871"
       d="m 281.96726,230.93176 c -0.57789,-5.35344 -1.20314,-10.68919 -1.38947,-11.85721 -0.32651,-2.04678 -1.72006,-13.20682 -2.56344,-20.52888 -0.22422,-1.94671 -0.58545,-4.50632 -0.80272,-5.68802 l -0.39503,-2.14857 5.03295,0.0249 c 4.39945,0.0218 5.32694,-0.2223 7.36849,-1.93888 6.07418,-5.1073 -0.0927,-16.22163 -14.42933,-26.00517 -3.04205,-2.07595 -5.35243,-3.92463 -5.1342,-4.10818 0.21823,-0.18356 0.94032,0.0457 1.60464,0.5094 1.6126,1.12566 2.46941,-0.0773 1.85567,-2.60536 -0.57767,-2.37954 -3.07614,-23.71877 -2.80101,-23.92321 0.10945,-0.0813 6.43648,6.74533 14.06009,15.17031 8.73606,9.65439 13.89786,15.97252 13.96051,17.0879 0.0547,0.97335 -0.18442,2.88466 -0.53131,4.24736 -0.3469,1.36269 -0.83575,3.75183 -1.08634,5.3092 -0.37205,2.31209 -2.74659,14.50511 -4.32986,22.23327 -0.19205,0.93742 -0.60144,3.16727 -0.90977,4.95524 -0.30834,1.78797 -0.67298,3.77952 -0.81032,4.42564 -0.13734,0.64614 -0.54357,2.71672 -0.90274,4.60131 -0.35916,1.88458 -0.6944,3.58579 -0.74498,3.78046 -0.0506,0.19467 -0.39745,2.10598 -0.77086,4.24736 -0.37341,2.14137 -0.82412,4.53051 -1.00159,5.3092 -0.17746,0.77868 -0.96929,4.84021 -1.75963,9.02562 -0.79033,4.18541 -1.66919,7.60985 -1.95301,7.60985 -0.28383,0 -0.98887,-4.38009 -1.56674,-9.73352 z"
       id="path512"
       inkscape:label="lower left" />
  </g>
  <metadata
     id="metadata280">
    <rdf:RDF>
      <cc:Work
         rdf:about="">
        <dc:creator>
          <cc:Agent>
            <dc:title>Swastik Pal</dc:title>
          </cc:Agent>
        </dc:creator>
        <dc:title>Diamond Ring</dc:title>
        <dc:date>11/07/2022</dc:date>
        <dc:subject>
          <rdf:Bag>
            <rdf:li>Shiny</rdf:li>
            <rdf:li>Ring</rdf:li>
            <rdf:li>Precious</rdf:li>
          </rdf:Bag>
        </dc:subject>
      </cc:Work>
    </rdf:RDF>
  </metadata>
</svg>
