<?xml version="1.0" encoding="UTF-8" standalone="no"?> <svg xmlns="http://www.w3.org/2000/svg" viewBox="0 0 512 512"><g id="flat"><path d="M340,264H172a84,84,0,0,0-84,84V488H224V392h64v96H424V348A84,84,0,0,0,340,264Zm-60,88a33.941,33.941,0,1,1,0-48A33.95,33.95,0,0,1,280,352Z" style="fill:#4799cf"/><circle cx="256" cy="128" r="104" style="fill:#4799cf"/><circle cx="216" cy="112" r="16" style="fill:#3775a4"/><circle cx="296" cy="112" r="16" style="fill:#3775a4"/><path d="M256,181.255a52.908,52.908,0,0,1-37.657-15.6,8,8,0,0,1,11.314-11.314,37.254,37.254,0,0,0,52.686,0,8,8,0,0,1,11.314,11.314A52.908,52.908,0,0,1,256,181.255Z" style="fill:#3775a4"/><path d="M160,392v96H144V392a8,8,0,0,1,16,0Z" style="fill:#3775a4"/><path d="M368,392v96H352V392a8,8,0,0,1,16,0Z" style="fill:#3775a4"/></g></svg>