<?xml version="1.0" encoding="utf-8"?>
<!-- Uploaded to SVGRepo https://www.svgrepo.com -->
<svg version="1.1" id="Layer_1" xmlns="http://www.w3.org/2000/svg" xmlns:xlink="http://www.w3.org/1999/xlink" x="0px" y="0px"
	 width="256px" height="202px" viewBox="0 0 256 202" enable-background="new 0 0 256 202" xml:space="preserve">
<path d="M51.457,30.322c0-15.377,12.301-27.777,27.777-27.777c15.377,0,27.777,12.4,27.777,27.777
	c-0.099,15.476-12.499,27.777-27.777,27.777C63.857,58.098,51.457,45.698,51.457,30.322z M204.672,149.455h-50.4v-45.038
	c0-21.941-19.174-39.677-40.749-39.677H45.966C22.28,64.74,1.989,85.265,2,105.489v80.57C1.972,195.21,8.435,199.988,14.868,200
	c6.449,0.012,12.868-4.767,12.868-13.94v-78.426h8.579v92.294h83.643v-92.294h8.579l0.087,54.013
	c-0.057,9.36,5.728,13.347,11.709,13.544h64.34C222.219,175.191,222.219,149.455,204.672,149.455z M254,32.034v80.346v0.083
	c-5.459,0-9.877,4.417-9.877,9.877c0,5.459,4.417,9.877,9.877,9.877v3.834h-70.887v-0.042c-7.293-0.292-13.169-6.293-13.169-13.669
	c0-0.625,0.167-76.596,0.167-76.596c0-7.543,6.168-13.711,13.711-13.711H254z M185.364,104.379h3.834V39.535h-3.834V104.379z
	 M244.665,112.38l-61.802,0.125c-5.084,0.375-9.126,4.626-9.126,9.793c0,5.459,4.459,9.918,9.918,9.877h60.885
	c-2.584-2.5-4.251-6.001-4.251-9.877C240.289,118.381,241.998,114.881,244.665,112.38z"/>
</svg>
