<?xml version="1.0" encoding="iso-8859-1"?>
<!-- Generator: Adobe Illustrator 19.0.0, SVG Export Plug-In . SVG Version: 6.00 Build 0)  -->
<svg version="1.1" id="Layer_1" xmlns="http://www.w3.org/2000/svg" xmlns:xlink="http://www.w3.org/1999/xlink" x="0px" y="0px"
	 viewBox="0 0 512 512" style="enable-background:new 0 0 512 512;" xml:space="preserve">
<g>
	<g>
		<path d="M337.11,360.356c-1.035-1.917-2.789-3.345-4.877-3.968l-9.637-2.879c-25.658-7.666-52.769,6.972-60.435,32.629
			c-1.299,4.347,1.172,8.922,5.518,10.221l9.637,2.88v0.001c4.62,1.38,9.287,2.037,13.879,2.037
			c20.912,0,40.271-13.629,46.557-34.667C338.376,364.523,338.145,362.272,337.11,360.356z M306.488,380.986
			c-7.553,4.078-16.245,4.973-24.468,2.513v0.001l-0.749-0.224c7.423-12.138,22.363-18.285,36.621-14.027l0.758,0.227
			C315.727,374.279,311.569,378.243,306.488,380.986z"/>
	</g>
</g>
<g>
	<g>
		<path d="M245.545,386.138c-7.666-25.657-34.779-40.296-60.432-32.629l-9.638,2.879c-2.087,0.623-3.842,2.051-4.877,3.968
			c-1.035,1.917-1.266,4.167-0.642,6.254c6.286,21.039,25.643,34.667,46.556,34.667c4.589,0,9.258-0.657,13.877-2.037l9.638-2.881
			C244.374,395.06,246.844,390.484,245.545,386.138z M225.686,383.501v-0.001c-14.26,4.26-29.198-1.89-36.621-14.027l0.749-0.223
			c14.258-4.264,29.198,1.89,36.621,14.027L225.686,383.501z"/>
	</g>
</g>
<g>
	<g>
		<path d="M307.691,437.365c-3.57-2.798-8.733-2.175-11.531,1.396c-9.197,11.732-22.939,18.193-38.694,18.193h-7.224
			c-15.988,0-29.858-6.627-39.055-18.66c-2.755-3.604-7.911-4.293-11.513-1.538c-3.604,2.755-4.293,7.91-1.539,11.514
			c12.197,15.958,31.189,25.111,52.106,25.111h7.224c20.607,0,39.423-8.924,51.622-24.485
			C311.886,445.326,311.26,440.163,307.691,437.365z"/>
	</g>
</g>
<g>
	<g>
		<path d="M502.354,210.558c-2.936-6.265-8.135-11.012-14.639-13.365c-4.412-1.598-9.067-1.96-13.561-1.115
			c-9.913-19.567-24.964-36.062-43.587-47.731c-19.41-12.161-41.858-18.487-64.859-18.289c-20.589,0.175-40.389,5.621-57.828,15.549
			c-6.856-27.704-18.774-50.749-36.253-70.165c-18.688-20.757-43.972-37.521-77.301-51.249c-1.069-0.44-2.155-0.757-3.244-0.978
			c-1.012-9.553-7.317-18.184-16.941-21.669c-13.429-4.859-28.308,2.111-33.169,15.538c-2.355,6.504-2.036,13.537,0.899,19.802
			c2.935,6.266,8.134,11.013,14.639,13.366c2.878,1.043,5.859,1.561,8.831,1.561s5.935-0.527,8.776-1.558
			c0.156,0.207,0.301,0.418,0.467,0.622c18.083,22.153,27.406,50.103,26.252,78.704c-0.205,5.062-0.741,10.015-1.582,14.825
			c-16.588-8.994-35.472-14.179-55.497-14.35c-23.013-0.185-45.45,6.128-64.859,18.289c-18.867,11.821-34.076,28.588-43.981,48.489
			c-0.222,0.447-0.421,0.9-0.6,1.356c-11.037-0.511-21.618,6.136-25.572,17.057c-2.355,6.504-2.035,13.537,0.899,19.802
			c2.934,6.265,8.134,11.012,14.638,13.365c2.879,1.043,5.86,1.561,8.832,1.561c3.745,0,7.479-0.824,10.971-2.459
			c6.265-2.935,11.012-8.134,13.367-14.639c1.755-4.852,1.96-9.89,0.882-14.579c0.15-0.092,0.304-0.174,0.452-0.272
			c10.738-7.06,23.238-10.793,36.151-10.793c17.045,0,31.511,6.494,41.831,18.777c8.493,10.109,13.728,23.725,15.112,38.94
			c-10.577,0.285-19.099,8.958-19.099,19.602v30.227c0,7.448,4.169,13.94,10.297,17.265v66.911
			c0,33.237,10.581,61.755,30.601,82.471c19.05,19.714,45.406,30.57,74.214,30.57h11.924c28.808,0,55.164-10.856,74.214-30.57
			c20.018-20.716,30.599-49.233,30.599-82.471c0,0,0-12.097,0-16.633v-16.633c0-4.537-3.676-8.214-8.214-8.214
			c-4.537,0-8.214,3.676-8.214,8.214c0,0,0,12.097,0,16.633v16.633c0,56.884-36.346,96.614-88.386,96.614h-11.924
			c-52.041,0-88.387-39.729-88.387-96.614v-64.546h197.222c10.823,0,19.629-8.806,19.629-19.63v-30.227
			c0-10.617-8.479-19.271-19.018-19.599c1.394-15.192,6.666-28.802,15.218-38.927c10.387-12.296,24.9-18.795,41.97-18.795
			c12.913,0,25.413,3.732,36.15,10.793c0.78,0.513,1.586,0.952,2.411,1.319c-0.389,4.48,0.398,9.004,2.356,13.186
			c2.935,6.265,8.134,11.012,14.639,13.367c2.901,1.049,5.868,1.546,8.789,1.546c10.6,0,20.569-6.558,24.38-17.086
			C505.608,223.857,505.289,216.824,502.354,210.558z M174.097,29.476c-1.93,4.635-7.249,7.053-11.996,5.332
			c-3.872-1.402-6.457-5.276-6.238-9.397c0.204-3.819,2.752-7.192,6.354-8.451C169.744,14.326,177.163,22.106,174.097,29.476z
			 M42.007,227.288c-0.862,2.38-4.367,6.303-8.846,6.254c-3.935-0.042-7.553-2.471-8.933-6.155
			c-1.391-3.713-0.264-8.021,2.772-10.569c3.022-2.536,7.435-2.943,10.851-0.942C41.748,218.16,43.548,223.029,42.007,227.288z
			 M149.348,215.446c-13.544-16.118-32.357-24.638-54.41-24.638c-16.111,0-31.714,4.657-45.13,13.466
			c-0.057-0.048-0.114-0.095-0.171-0.142c8.557-17.181,21.692-31.656,37.985-41.865c16.497-10.336,35.528-15.787,55.096-15.787
			c0.299,0,0.601,0.001,0.901,0.004c56.201,0.479,102.028,46.701,102.995,103.418c-0.134,0.589-0.211,1.199-0.211,1.828v13.195
			h-78.025C166.904,245.795,160.277,228.456,149.348,215.446z M359.929,284.555v30.227c0,1.765-1.437,3.203-3.202,3.203H152.41
			c-1.765,0-3.202-1.438-3.202-3.203v-30.227c0-1.765,1.437-3.202,3.202-3.202h8.067h94.138h0.234h93.889h7.989
			C358.493,281.354,359.929,282.79,359.929,284.555z M459.617,204.247c-13.406-8.791-28.994-13.438-45.089-13.438
			c-22.061,0-40.911,8.514-54.519,24.621c-11.008,13.03-17.682,30.374-19.167,49.496h-77.779V251.73
			c0-39.96-19.313-75.602-48.988-97.826c1.772-7.587,2.846-15.516,3.176-23.661c1.318-32.616-9.315-64.492-29.939-89.755
			c-0.153-0.188-0.278-0.349-0.208-0.596c0.105-0.164,0.223-0.317,0.325-0.483c0.212-0.188,0.381-0.135,0.641-0.03
			c60.737,25.018,93.38,60.934,105.215,116.028c-7.557,5.918-14.483,12.787-20.601,20.539c-2.81,3.561-2.201,8.726,1.36,11.535
			c3.56,2.81,8.726,2.202,11.535-1.36c19.664-24.924,48.921-39.373,80.269-39.639c19.879-0.221,39.246,5.287,55.996,15.782
			c16.266,10.193,29.384,24.639,37.942,41.782C459.728,204.112,459.676,204.182,459.617,204.247z M487.808,224.769
			c-1.78,4.912-6.03,6.867-10.482,6.119c-4.918-0.826-8.45-5.52-7.834-10.49c0.706-5.707,6.593-9.575,12.102-7.933
			C486.743,213.998,489.642,219.7,487.808,224.769z"/>
	</g>
</g>
<g>
	<g>
		<circle cx="172.529" cy="299.665" r="7.995"/>
	</g>
</g>
<g>
	<g>
		<circle cx="204.66" cy="299.665" r="7.995"/>
	</g>
</g>
<g>
	<g>
		<circle cx="236.803" cy="299.665" r="7.995"/>
	</g>
</g>
<g>
	<g>
		<circle cx="268.945" cy="299.665" r="7.995"/>
	</g>
</g>
<g>
	<g>
		<circle cx="301.077" cy="299.665" r="7.995"/>
	</g>
</g>
<g>
	<g>
		<circle cx="333.22" cy="299.665" r="7.995"/>
	</g>
</g>
<g>
</g>
<g>
</g>
<g>
</g>
<g>
</g>
<g>
</g>
<g>
</g>
<g>
</g>
<g>
</g>
<g>
</g>
<g>
</g>
<g>
</g>
<g>
</g>
<g>
</g>
<g>
</g>
<g>
</g>
</svg>
