<?xml version="1.0" encoding="iso-8859-1"?>
<!-- Generator: Adobe Illustrator 17.1.0, SVG Export Plug-In . SVG Version: 6.00 Build 0)  -->
<!DOCTYPE svg PUBLIC "-//W3C//DTD SVG 1.1//EN" "http://www.w3.org/Graphics/SVG/1.1/DTD/svg11.dtd">
<svg version="1.1" id="Capa_1" xmlns="http://www.w3.org/2000/svg" xmlns:xlink="http://www.w3.org/1999/xlink" x="0px" y="0px"
	 viewBox="0 0 216.393 216.393" style="enable-background:new 0 0 216.393 216.393;" xml:space="preserve">
<path d="M148.276,78.598c-3.277,12.53-10.907,15.371-15.056,15.962c-2.538,5.063-8.042,15.265-13.558,20.411
	c-2.224,2.076-5.112,3.828-8.587,5.208c-4.429,1.757-9.105,2.648-13.898,2.648c-4.794,0-9.471-0.892-13.898-2.648
	c-3.476-1.38-6.364-3.132-8.589-5.209c-5.515-5.146-11.018-15.347-13.556-20.41c-4.149-0.591-11.779-3.432-15.057-15.962
	c-1.767-6.752-1.31-12.263,1.357-16.379c1.157-1.786,2.556-3.015,3.866-3.856c0.007-1.311,0.06-2.927,0.208-4.764
	c-2.391-3.356-5.574-10.505-1.584-22.004c4.222-12.171,13.731-14.127,18.415-14.316c1.58-2.908,4.532-6.99,9.836-10.743
	C84.132,2.32,91.907,0,100.068,0c10.034,0,20.13,3.53,29.194,10.209c14.696,10.83,13.469,34.79,13.106,39.214
	c0.523,3.591,0.672,6.709,0.684,8.939c1.311,0.842,2.709,2.07,3.866,3.856C149.585,66.335,150.042,71.846,148.276,78.598z
	 M119.216,174.427c0-18.347,9.566-34.491,23.963-43.74l-15.544-6.218c-1.258-0.502-2.668-0.473-3.903,0.08
	c-1.236,0.555-2.195,1.588-2.656,2.861l-10.4,28.755l-1.898-5.459l3.307-8.082c0.631-1.542,0.452-3.297-0.477-4.681
	c-0.929-1.383-2.485-2.213-4.151-2.213H86.898c-1.666,0-3.223,0.83-4.151,2.213c-0.929,1.384-1.107,3.139-0.477,4.681l3.307,8.082
	l-1.898,5.459l-10.4-28.755c-0.461-1.273-1.42-2.307-2.656-2.861c-1.236-0.554-2.646-0.583-3.902-0.08l-42.084,16.833
	c-12.994,5.199-21.391,17.601-21.391,31.596v33.974c0,2.762,2.238,5,5,5h126.96C125.361,202.409,119.216,189.126,119.216,174.427z
	 M176.182,191.055h1.781c3.449,0,6.256-2.807,6.256-6.256s-2.807-6.256-6.256-6.256h-1.781V191.055z M156.556,162.285
	c0,3.453,2.806,6.258,6.254,6.258h3.372v-12.511h-3.372C159.362,156.032,156.556,158.837,156.556,162.285z M213.148,174.427
	c0,23.14-18.826,41.966-41.966,41.966s-41.966-18.826-41.966-41.966s18.826-41.965,41.966-41.965S213.148,151.287,213.148,174.427z
	 M176.182,168.543v-12.511h13.037c2.762,0,5-2.238,5-5s-2.238-5-5-5h-13.037v-1.549c0-2.762-2.238-5-5-5s-5,2.238-5,5v1.549h-3.372
	c-8.963,0-16.254,7.291-16.254,16.258c0,8.962,7.291,16.253,16.254,16.253h3.372v12.512h-14.626c-2.762,0-5,2.238-5,5s2.238,5,5,5
	h14.626v2.764c0,2.762,2.238,5,5,5s5-2.238,5-5v-2.764h1.781c8.964,0,16.256-7.292,16.256-16.256s-7.292-16.256-16.256-16.256
	H176.182z"/>
<g>
</g>
<g>
</g>
<g>
</g>
<g>
</g>
<g>
</g>
<g>
</g>
<g>
</g>
<g>
</g>
<g>
</g>
<g>
</g>
<g>
</g>
<g>
</g>
<g>
</g>
<g>
</g>
<g>
</g>
</svg>
