<?xml version='1.0' encoding='iso-8859-1'?>
<!DOCTYPE svg PUBLIC '-//W3C//DTD SVG 1.1//EN' 'http://www.w3.org/Graphics/SVG/1.1/DTD/svg11.dtd'>
<svg version="1.1" xmlns="http://www.w3.org/2000/svg" viewBox="0 0 325.362 325.362" xmlns:xlink="http://www.w3.org/1999/xlink" enable-background="new 0 0 325.362 325.362">
  <g>
    <path d="m157.077,220.836v89.024c0,8.284 6.716,15 15,15 8.284,0 15-6.716 15-15v-67.32c-11.743-4.637-22.041-12.158-30-21.704z"/>
    <path d="m217.107,113.616c-0.079-15.807-0.06-13.951-0.101-15.002-0.604-15.771-13.653-28.442-29.551-28.442h-33.606c-0.004,0-0.008,0.001-0.013,0.001-0.004,0-0.008-0.001-0.013-0.001h-33.607c-15.948,0-29.039,12.75-29.564,28.593-2.06,16.596-2.396,19.302-4.638,37.358l-1.449,1.572-2.2-16.102-6.096-44.613c-0.936-6.84-7.236-11.622-14.077-10.692-6.84,0.935-11.627,7.237-10.692,14.077 0.953,6.976 9.713,71.084 11.09,81.166l-2.896,3.141c-4.68,5.075-4.358,12.983 0.718,17.663 5.075,4.679 12.984,4.358 17.663-0.718 0,0 10.223-11.088 27.714-30.06 1.487-1.613 3.987-3.916 4.54-8.371 5.633-45.369 5.3-42.38 5.307-43.455 0.007-1.368 1.12-2.472 2.487-2.468 1.367,0.004 2.473,1.113 2.473,2.48l.006,210.117c0,8.284 6.716,15 15,15s15-6.716 15-15v-98.069c-7.117-11.703-10.813-25.221-10.813-38.647 0-31.392 19.501-58.297 47.017-69.289v-4.111c0-1.442 1.167-2.612 2.609-2.616 1.442-0.004 2.615,1.16 2.622,2.603 0.019,3.739 0.068,13.601 0.091,18.13-21.885,8.82-37.339,30.24-37.339,55.283 0,32.914 26.682,59.596 59.596,59.596 32.914,0 59.596-26.682 59.596-59.596-0.001-32.001-25.225-58.103-56.874-59.528zm-2.474,85.844c-0.083,0.001-0.165,0.006-0.249,0.006-14.537,0-26.323-11.842-26.323-26.323 0-14.445 11.761-26.323 26.323-26.323 14.477,0 26.323,11.78 26.323,26.323-2.84217e-14,14.431-11.674,26.182-26.074,26.317z"/>
    <path d="m91.587,189.088l-2.484,2.694c-5.293,5.742-12.989,9.123-21.172,8.838l15.568,113.931c0.856,6.266 6.217,10.81 12.369,10.81 0.563,0 1.134-0.039 1.708-0.117 6.84-0.935 11.627-7.237 10.692-14.077l-16.681-122.079z"/>
    <circle cx="214.384" cy="173.143" r="11.323"/>
    <path d="m154.647,.011c-14.94-0.433-27.2,11.538-27.222,26.387l-.055,35.516h18.965v-13.19c0-2.244-1.819-4.064-4.064-4.064-2.244,0-4.064-1.819-4.064-4.064v-6.872c0-2.244 1.82-4.064 4.064-4.064h23.129c2.244,0 4.064,1.819 4.064,4.064v6.872c0,2.245-1.82,4.064-4.064,4.064h-0.001c-2.245,0-4.064,1.819-4.064,4.064v13.19h18.912 0.051l.002-34.885c0.024-14.406-11.253-26.601-25.653-27.018z"/>
  </g>
</svg>
