<?xml version="1.0" encoding="UTF-8" standalone="no"?> <svg id="Layer_1" data-name="Layer 1" xmlns="http://www.w3.org/2000/svg" viewBox="0 0 64 64"><defs><style>.cls-1{fill:#1478b8;}.cls-2{fill:#1787ce;}.cls-3{fill:#005f9c;}.cls-4{fill:#fca219;}.cls-5{fill:#00b334;}.cls-6{fill:#009c2d;}.cls-7{fill:#008527;}.cls-8{fill:#e91d18;}.cls-9{fill:#cf130e;}.cls-10{fill:#8f0e0b;}.cls-11{fill:#e89517;}.cls-12{fill:#db890b;}.cls-13{fill:#004e80;}.cls-14{fill:#00548a;}</style></defs><title>human-world-relation-connect-network</title><path class="cls-1" d="M3,36a29,29,0,0,1,58,0"/><path class="cls-2" d="M32,7c-5.12832,0-9.5933,1.17075-12,2.89388v.21224C22.4067,11.82925,26.87168,13,32,13s9.5933-1.17075,12-2.89388V9.89388C41.5933,8.17075,37.12832,7,32,7Z"/><path class="cls-3" d="M32,6A30.03406,30.03406,0,0,0,2,36H4a27.976,27.976,0,0,1,.66443-6.04443,77.582,77.582,0,0,0,9.55871,2.42358A29.768,29.768,0,0,0,14,36h2a27.79322,27.79322,0,0,1,.19495-3.27515A96.9863,96.9863,0,0,0,31,33.98145V36h2V33.98145a96.9863,96.9863,0,0,0,14.80505-1.2566A27.79322,27.79322,0,0,1,48,36h2a29.768,29.768,0,0,0-.22314-3.62085,77.582,77.582,0,0,0,9.55871-2.42358A27.976,27.976,0,0,1,60,36h2A30.03406,30.03406,0,0,0,32,6ZM54.01538,18.7301a84.12049,84.12049,0,0,1-8.43494,1.63745,29.92748,29.92748,0,0,0-6.197-7.24945A16.08875,16.08875,0,0,0,44.499,10.95532,28.17492,28.17492,0,0,1,54.01538,18.7301ZM43.40521,20.65472A97.04782,97.04782,0,0,1,33,21.31451V13.96973a31.54034,31.54034,0,0,0,3.81659-.34235A27.87119,27.87119,0,0,1,43.40521,20.65472ZM19.501,10.95526A16.08623,16.08623,0,0,0,24.61591,13.118a29.92828,29.92828,0,0,0-6.1966,7.24957A84.116,84.116,0,0,1,9.98462,18.7301,28.17381,28.17381,0,0,1,19.501,10.95526ZM14.53778,30.40509a75.40913,75.40913,0,0,1-9.372-2.388,27.8904,27.8904,0,0,1,3.548-7.54492,84.29235,84.29235,0,0,0,8.64758,1.76367A30.1193,30.1193,0,0,0,14.53778,30.40509ZM31,31.98151a94.987,94.987,0,0,1-14.49219-1.23163A28.11228,28.11228,0,0,1,19.47235,22.538,98.83221,98.83221,0,0,0,31,23.31445Zm0-10.667a97.0525,97.0525,0,0,1-10.40546-.65979,27.87416,27.87416,0,0,1,6.58808-7.02746A31.52885,31.52885,0,0,0,31,13.96973ZM32,12A23.78576,23.78576,0,0,1,21.75165,9.95093a27.89306,27.89306,0,0,1,20.4967,0A23.78576,23.78576,0,0,1,32,12Zm1,19.98151V23.31445A98.8274,98.8274,0,0,0,44.52747,22.538a28.1123,28.1123,0,0,1,2.96472,8.21186A94.987,94.987,0,0,1,33,31.98151Zm16.46222-1.57642a30.11823,30.11823,0,0,0-2.82367-8.16925,84.29793,84.29793,0,0,0,8.6477-1.76373,27.89077,27.89077,0,0,1,3.548,7.545A75.40913,75.40913,0,0,1,49.46222,30.40509Z"/><path class="cls-3" d="M56.80084,20.95831A32.12239,32.12239,0,0,1,41.52917,36H61A28.87021,28.87021,0,0,0,56.80084,20.95831Z"/><rect class="cls-4" x="58" y="2" width="2" height="2"/><rect class="cls-4" x="58" y="6" width="2" height="2"/><rect class="cls-4" x="60" y="4" width="2" height="2"/><rect class="cls-4" x="56" y="4" width="2" height="2"/><rect class="cls-4" x="4" y="2" width="2" height="2"/><rect class="cls-4" x="4" y="6" width="2" height="2"/><rect class="cls-4" x="6" y="4" width="2" height="2"/><rect class="cls-4" x="2" y="4" width="2" height="2"/><path class="cls-5" d="M59,42H57.62048a4.00006,4.00006,0,1,0-5.241,0H51a3,3,0,0,0-3,3v6l2,1V62H60V52l2-1V45A3,3,0,0,0,59,42Z"/><path class="cls-6" d="M61.93512,51.03247,62,51v-.11108C61.97876,50.937,61.95673,50.98462,61.93512,51.03247Z"/><path class="cls-6" d="M51.03918,62H60V54.46747A22.08212,22.08212,0,0,1,51.03918,62Z"/><rect class="cls-7" x="56" y="58" width="2" height="2"/><polygon class="cls-7" points="54 50 56 50 56 46 57 46 57 44 53 44 53 46 54 46 54 50"/><path class="cls-8" d="M36,42H34.62048a4.00006,4.00006,0,1,0-5.241,0H28a3,3,0,0,0-3,3v6l2,1V62H37V52l2-1V45A3,3,0,0,0,36,42Z"/><path class="cls-9" d="M38.93512,51.03247,39,51v-.11108C38.97876,50.937,38.95673,50.98462,38.93512,51.03247Z"/><path class="cls-9" d="M28.03918,62H37V54.46747A22.08212,22.08212,0,0,1,28.03918,62Z"/><polygon class="cls-10" points="31 50 33 50 33 46 34 46 34 44 30 44 30 46 31 46 31 50"/><rect class="cls-10" x="33" y="58" width="2" height="2"/><path class="cls-4" d="M13,42H11.62048a4.00006,4.00006,0,1,0-5.241,0H5a3,3,0,0,0-3,3v6l2,1V62H14V52l2-1V45A3,3,0,0,0,13,42Z"/><path class="cls-11" d="M15.93512,51.03247,16,51v-.11108C15.97876,50.937,15.95673,50.98462,15.93512,51.03247Z"/><path class="cls-11" d="M5.03918,62H14V54.46747A22.08212,22.08212,0,0,1,5.03918,62Z"/><polygon class="cls-12" points="8 50 10 50 10 46 11 46 11 44 7 44 7 46 8 46 8 50"/><rect class="cls-12" x="10" y="58" width="2" height="2"/><path class="cls-13" d="M57.28839,19.89124q-.48184,1.09314-1.03888,2.14367a27.88388,27.88388,0,0,1,2.58472,5.98218,75.16325,75.16325,0,0,1-8.92664,2.29657,32.14778,32.14778,0,0,1-3.07434,2.55151c.32221-.04956.65174-.08746.9718-.14032A27.79322,27.79322,0,0,1,48,36h2a29.768,29.768,0,0,0-.22314-3.62085,77.582,77.582,0,0,0,9.55871-2.42358A27.976,27.976,0,0,1,60,36h2A29.81172,29.81172,0,0,0,57.28839,19.89124Z"/><path class="cls-14" d="M14.00677,35.783C14.00623,35.85559,14,35.92737,14,36h.47083C14.3161,35.92773,14.16016,35.85773,14.00677,35.783Z"/></svg>