<svg enable-background="new 0 0 460 460" viewBox="0 0 460 460" xmlns="http://www.w3.org/2000/svg"><path d="m460 345c0-8.586-.945-16.951-2.729-25-9.822-44.301-45.195-78.989-89.865-87.811l-.001-.006c-7.239-1.428-14.719-2.183-22.376-2.183h-115.028l-.001-120.588 101.738-17.954c4.779-.843 8.262-4.995 8.262-9.848v-39.691c0-6.218-5.615-10.928-11.738-9.848l-99.184 17.503c-4.937-28.164-29.499-49.574-59.078-49.574h-110c-33.137 0-60 26.863-60 60v340c0 5.902 1.864 14.523 2.053 15.521l-.011.011c5.521 20.65 21.776 36.906 42.426 42.426l.011-.011c.992.188 9.623 2.053 15.521 2.053h130 60s96.172-.013 96.757-.022c20.889-.308 40.428-6.182 57.2-16.211l-.003-.016c33.568-20.083 56.046-56.79 56.046-98.751z" fill="#d7e2d9"/><path d="m457.271 320c1.785 8.049 2.729 16.414 2.729 25 0 41.961-22.478 78.668-56.045 98.751l.003.016c-16.772 10.029-36.311 15.903-57.2 16.211-.586.009-96.758.022-96.758.022h-60-130c-5.898 0-14.529-1.865-15.521-2.052l-.011.011c-20.65-5.521-36.906-21.776-42.426-42.426l.011-.011c-.189-.999-2.053-9.62-2.053-15.522v-340c0-33.137 26.863-60 60-60h50v300c0 11.046 8.954 20 20 20z" fill="#b6d3bd"/><g fill="#97c1ab"><path d="m110 190.87-110 19.13v-60l110-19.412 120-21.177v60.589z"/><path d="m110 307.574 68.643-68.643-68.643 11.939-110 19.13v130c0 5.902 1.864 14.523 2.053 15.521z"/><path d="m229.079 49.574c-4.938-28.164-29.5-49.574-59.079-49.574h-110c-33.137 0-60 26.863-60 60v30l110-19.412z"/><path d="m214.348 320 6.72-38.641-38.641 38.641-137.958 137.958.011-.011c.991.188 9.622 2.053 15.52 2.053h130z"/><path d="m322.587 320-15.541-90h-17.046l-15.652 90-24.348 140s96.172-.013 96.757-.022z"/><path d="m457.271 320c-9.822-44.301-45.195-78.989-89.865-87.811l15.17 87.811 21.379 123.751c33.567-20.083 56.045-56.79 56.045-98.751 0-8.586-.945-16.951-2.729-25z"/></g><path d="m2.053 415.521c-.189-.998-2.053-9.619-2.053-15.521v-130l110-19.13v49.13c0 2.271.397 4.445 1.094 6.48l-1.094 1.094z" fill="#84b29b"/><path d="m110 70.588-110 19.412v-30c0-33.137 26.863-60 60-60h50z" fill="#84b29b"/><path d="m110 190.87-110 19.13v-60l110-19.412z" fill="#84b29b"/><path d="m460 345c0 41.961-22.478 78.668-56.045 98.751l.001.01-21.38-123.761h74.695c1.785 8.049 2.729 16.414 2.729 25z" fill="#84b29b"/><path d="m346.757 459.978c-.588.009-96.757.022-96.757.022l24.348-140h48.239z" fill="#84b29b"/><path d="m214.348 320-24.348 140h-130c-5.898 0-14.529-1.865-15.521-2.052l-.008.008 137.956-137.956z" fill="#84b29b"/><path d="m230 150h-230l110-19.412 120-21.177z" fill="#749e88"/><path d="m197.027 420-6.957 40h-.081-130c-5.898 0-14.529-1.865-15.521-2.052l38.03-37.948z" fill="#749e88"/><path d="m432.154 420c-8.03 9.323-17.526 17.346-28.136 23.705l-4.096-23.705z" fill="#749e88"/><path d="m346.746 459.978c-.576.008-93.604.021-96.676.022l6.957-40h82.898l6.903 39.976c-.028 0-.054.002-.082.002z" fill="#749e88"/></svg>