<svg id="Layer_1" enable-background="new 0 0 512 512" height="512" viewBox="0 0 512 512" width="512" xmlns="http://www.w3.org/2000/svg"><g><path d="m288.166 61.053-12.275 144.853c-.393 4.64.43 9.303 2.39 13.528l45.692 98.527c2.741 5.91 3.233 12.616 1.385 18.863l-43.495 147.036c-.196.661.624 1.144 1.102.648 3.934-4.082 12.723-13.252 13.074-13.619 56.722-59.285 170.541-178.246 175.436-183.361h-.014c118.811-142.425-48.521-307.219-180.762-230.508-1.453.843-2.391 2.359-2.533 4.033z" fill="#c30010"/><path d="m257.657 317.961-45.692-98.527c-1.959-4.225-2.783-8.888-2.39-13.528l12.233-144.356c.169-1.995-.816-3.926-2.555-4.918-139.476-79.541-294.045 99.576-179.136 230.896 1.957 2.045 109.749 114.714 172.19 179.98 2.751 2.875 7.576 1.698 8.704-2.117l38.032-128.567c1.848-6.246 1.355-12.953-1.386-18.863z" fill="#ff001e"/></g><path fill="none" stroke="#000" stroke-width="30" stroke-linecap="round" stroke-linejoin="round" stroke-miterlimit="10"/></svg>